<svg width="250" height="251" viewBox="0 0 250 251" fill="none" xmlns="http://www.w3.org/2000/svg">
<g opacity="0.3">
<path d="M231.938 79.9609H216.534V86.8409H231.938V79.9609Z" stroke="black" stroke-linecap="round" stroke-linejoin="round"/>
<path d="M223.697 88.7539H208.293V95.6338H223.697V88.7539Z" stroke="black" stroke-linecap="round" stroke-linejoin="round"/>
<path d="M237.007 88.7539H240.889V95.6338H225.485V88.7539H233.184" stroke="black" stroke-linecap="round" stroke-linejoin="round"/>
</g>
<g opacity="0.3">
<path d="M155.309 177.822H139.906V184.702H155.309V177.822Z" stroke="black" stroke-linecap="round" stroke-linejoin="round"/>
<path d="M147.073 186.615H131.67V193.495H147.073V186.615Z" stroke="black" stroke-linecap="round" stroke-linejoin="round"/>
<path d="M160.379 186.611H164.26V193.491H148.862V186.611H156.555" stroke="black" stroke-linecap="round" stroke-linejoin="round"/>
</g>
<g opacity="0.3">
<path d="M33.7739 97.0586H18.3704V103.939H33.7739V97.0586Z" stroke="black" stroke-linecap="round" stroke-linejoin="round"/>
<path d="M25.5383 105.848H10.1348V112.728H25.5383V105.848Z" stroke="black" stroke-linecap="round" stroke-linejoin="round"/>
<path d="M38.8489 105.848H42.73V112.728H27.3264V105.848H35.0203" stroke="black" stroke-linecap="round" stroke-linejoin="round"/>
</g>
<g opacity="0.3">
<path d="M231.938 97.582H216.534V104.462H231.938V97.582Z" stroke="black" stroke-linecap="round" stroke-linejoin="round"/>
<path d="M223.697 106.375H208.293V113.255H223.697V106.375Z" stroke="black" stroke-linecap="round" stroke-linejoin="round"/>
<path d="M232.968 113.255H225.485V106.375H240.889V113.255H235.519" stroke="black" stroke-linecap="round" stroke-linejoin="round"/>
</g>
<g opacity="0.3">
<path d="M143.434 20.3594H128.031V27.2393H143.434V20.3594Z" stroke="black" stroke-linecap="round" stroke-linejoin="round"/>
<path d="M135.193 29.1484H119.79V36.0284H135.193V29.1484Z" stroke="black" stroke-linecap="round" stroke-linejoin="round"/>
<path d="M148.504 29.1484H152.385V36.0284H136.982V29.1484H144.681" stroke="black" stroke-linecap="round" stroke-linejoin="round"/>
</g>
<g opacity="0.3">
<path d="M73.1532 162.217H57.7496V169.097H73.1532V162.217Z" stroke="black" stroke-linecap="round" stroke-linejoin="round"/>
<path d="M64.9124 171.006H49.5088V177.886H64.9124V171.006Z" stroke="black" stroke-linecap="round" stroke-linejoin="round"/>
<path d="M78.2229 171.006H82.104V177.886H66.7004V171.006H74.3943" stroke="black" stroke-linecap="round" stroke-linejoin="round"/>
</g>
<g opacity="0.3">
<path d="M76.9607 39.7812H61.5571V46.6612H76.9607V39.7812Z" stroke="black" stroke-linecap="round" stroke-linejoin="round"/>
<path d="M68.7251 48.5742H53.3215V55.4542H68.7251V48.5742Z" stroke="black" stroke-linecap="round" stroke-linejoin="round"/>
<path d="M82.0304 48.5742H85.9115V55.4542H70.5132V48.5742H78.2071" stroke="black" stroke-linecap="round" stroke-linejoin="round"/>
</g>
<g opacity="0.3">
<path d="M171.801 196.902H156.398V203.782H171.801V196.902Z" stroke="black" stroke-linecap="round" stroke-linejoin="round"/>
<path d="M163.56 205.691H148.157V212.571H163.56V205.691Z" stroke="black" stroke-linecap="round" stroke-linejoin="round"/>
<path d="M172.832 212.571H165.348V205.691H180.752V212.571H175.383" stroke="black" stroke-linecap="round" stroke-linejoin="round"/>
</g>
<path d="M68.4517 224.976V220.594C68.4517 220.256 68.514 219.922 68.635 219.61C68.7561 219.298 68.9335 219.015 69.1572 218.776C69.3808 218.538 69.6463 218.348 69.9386 218.219C70.2308 218.09 70.544 218.023 70.8603 218.023H38.8489C38.2101 218.023 37.5974 218.294 37.1457 218.776C36.694 219.258 36.4402 219.912 36.4402 220.594V224.976C36.4402 225.658 36.6938 226.313 37.1454 226.796C37.5969 227.279 38.2096 227.551 38.8489 227.552H70.8603C70.221 227.551 69.6084 227.279 69.1568 226.796C68.7053 226.313 68.4517 225.658 68.4517 224.976Z" fill="#DB4EDE" stroke="#263238" stroke-linecap="round" stroke-linejoin="round"/>
<path d="M91.0863 218.372L91.3598 218.181C91.3757 218.172 91.388 218.157 91.3947 218.138C91.4014 218.12 91.402 218.1 91.3964 218.082C91.3908 218.063 91.3794 218.047 91.3641 218.037C91.3488 218.026 91.3306 218.022 91.3125 218.024H70.8603C70.544 218.024 70.2308 218.09 69.9385 218.22C69.6463 218.349 69.3808 218.538 69.1571 218.777C68.9335 219.015 68.756 219.299 68.635 219.611C68.514 219.922 68.4517 220.257 68.4517 220.594V224.977C68.4517 225.659 68.7053 226.313 69.1568 226.796C69.6084 227.279 70.221 227.551 70.8603 227.553H91.3125C91.3301 227.552 91.3472 227.546 91.3614 227.535C91.3755 227.523 91.3859 227.507 91.3911 227.489C91.3964 227.471 91.3962 227.452 91.3905 227.434C91.3849 227.416 91.3742 227.401 91.3598 227.39L91.0863 227.205V218.372Z" fill="white" stroke="#263238" stroke-width="0.5" stroke-linecap="round" stroke-linejoin="round"/>
<path d="M71.1759 218.371H91.0864V227.204H71.1759C70.8744 227.207 70.5753 227.146 70.296 227.025C70.0166 226.904 69.7625 226.725 69.5484 226.499C69.3342 226.272 69.1642 226.003 69.0482 225.706C68.9322 225.409 68.8724 225.09 68.8724 224.769V220.801C68.8731 220.48 68.9334 220.162 69.0497 219.866C69.166 219.569 69.3361 219.3 69.5502 219.075C69.7643 218.849 70.0182 218.67 70.2972 218.55C70.5762 218.429 70.8748 218.368 71.1759 218.371Z" fill="white" stroke="#263238" stroke-width="0.5" stroke-linecap="round" stroke-linejoin="round"/>
<path d="M69.5929 219.994H77.5708" stroke="#263238" stroke-width="0.5" stroke-linecap="round" stroke-linejoin="round"/>
<path d="M75.4777 220.803H82.9244" stroke="#263238" stroke-width="0.5" stroke-linecap="round" stroke-linejoin="round"/>
<path d="M79.9794 221.801H72.8482" stroke="#263238" stroke-width="0.5" stroke-linecap="round" stroke-linejoin="round"/>
<path d="M69.7717 224.85H74.4522" stroke="#263238" stroke-width="0.5" stroke-linecap="round" stroke-linejoin="round"/>
<path d="M73.2479 225.562H80.2476" stroke="#263238" stroke-width="0.5" stroke-linecap="round" stroke-linejoin="round"/>
<path d="M72.4012 226.229H74.2734" stroke="#263238" stroke-width="0.5" stroke-linecap="round" stroke-linejoin="round"/>
<path d="M77.6602 224.18H89.5665" stroke="#263238" stroke-width="0.5" stroke-linecap="round" stroke-linejoin="round"/>
<path d="M90.9496 222.139H88.4937" stroke="#263238" stroke-width="0.5" stroke-linecap="round" stroke-linejoin="round"/>
<path d="M90.5447 221.471H88.0519" stroke="#263238" stroke-width="0.5" stroke-linecap="round" stroke-linejoin="round"/>
<path d="M90.5447 225.752H84.3022" stroke="#263238" stroke-width="0.5" stroke-linecap="round" stroke-linejoin="round"/>
<path d="M70.1767 215.218V210.83C70.1767 210.148 70.4304 209.495 70.8821 209.013C71.3338 208.531 71.9465 208.26 72.5853 208.26H40.5738C39.935 208.26 39.3224 208.531 38.8707 209.013C38.419 209.495 38.1652 210.148 38.1652 210.83V215.218C38.1652 215.9 38.419 216.554 38.8707 217.036C39.3224 217.518 39.935 217.788 40.5738 217.788H72.5853C71.9465 217.788 71.3338 217.518 70.8821 217.036C70.4304 216.554 70.1767 215.9 70.1767 215.218Z" fill="#DB4EDE" stroke="#263238" stroke-linecap="round" stroke-linejoin="round"/>
<path d="M92.8113 208.608L93.0848 208.417C93.1007 208.408 93.113 208.393 93.1197 208.375C93.1264 208.357 93.127 208.337 93.1214 208.318C93.1158 208.3 93.1044 208.284 93.0891 208.273C93.0738 208.263 93.0556 208.258 93.0374 208.26H72.5853C71.9464 208.26 71.3338 208.531 70.8821 209.013C70.4304 209.495 70.1766 210.149 70.1766 210.83V215.219C70.1766 215.9 70.4304 216.554 70.8821 217.036C71.3338 217.518 71.9464 217.789 72.5853 217.789H93.0637C93.0818 217.791 93.1001 217.787 93.1154 217.776C93.1307 217.765 93.1421 217.75 93.1477 217.731C93.1533 217.713 93.1527 217.693 93.146 217.674C93.1393 217.656 93.127 217.641 93.1111 217.632L92.8376 217.441L92.8113 208.608Z" fill="#8C8C8C" stroke="#263238" stroke-linecap="round" stroke-linejoin="round"/>
<path d="M72.9061 208.607H92.8166V217.44H72.9061C72.3007 217.44 71.7202 217.184 71.2922 216.727C70.8641 216.27 70.6237 215.651 70.6237 215.005V211.02C70.6292 210.378 70.8721 209.765 71.2996 209.313C71.727 208.861 72.3044 208.607 72.9061 208.607Z" fill="white" stroke="#263238" stroke-width="0.5" stroke-linecap="round" stroke-linejoin="round"/>
<path d="M71.3178 210.236H79.2957" stroke="#263238" stroke-width="0.5" stroke-linecap="round" stroke-linejoin="round"/>
<path d="M77.2026 211.045H84.6494" stroke="#263238" stroke-width="0.5" stroke-linecap="round" stroke-linejoin="round"/>
<path d="M81.7043 212.043H74.5731" stroke="#263238" stroke-width="0.5" stroke-linecap="round" stroke-linejoin="round"/>
<path d="M71.4966 215.09H76.1771" stroke="#263238" stroke-width="0.5" stroke-linecap="round" stroke-linejoin="round"/>
<path d="M74.9728 215.803H81.9725" stroke="#263238" stroke-width="0.5" stroke-linecap="round" stroke-linejoin="round"/>
<path d="M74.1262 216.465H75.9984" stroke="#263238" stroke-width="0.5" stroke-linecap="round" stroke-linejoin="round"/>
<path d="M79.3851 214.422H91.2915" stroke="#263238" stroke-width="0.5" stroke-linecap="round" stroke-linejoin="round"/>
<path d="M92.6746 212.373H90.2186" stroke="#263238" stroke-width="0.5" stroke-linecap="round" stroke-linejoin="round"/>
<path d="M92.2696 211.711H89.7769" stroke="#263238" stroke-width="0.5" stroke-linecap="round" stroke-linejoin="round"/>
<path d="M92.2696 215.994H86.0325" stroke="#263238" stroke-width="0.5" stroke-linecap="round" stroke-linejoin="round"/>
<path d="M43.6924 215.286V210.533H45.4173V211.021H44.3129V212.593H45.207V213.064H44.3129V214.804H45.4331V215.281L43.6924 215.286Z" fill="#263238"/>
<path d="M45.9327 215.286V210.533H46.3535L47.6209 213.693V210.533H48.1468V215.286H47.7523L46.4692 212.043V215.286H45.9327Z" fill="#263238"/>
<path d="M49.898 215.342C49.662 215.356 49.4279 215.289 49.2301 215.151C49.0528 215.013 48.9248 214.815 48.8672 214.59C48.7839 214.307 48.7448 214.011 48.7515 213.714V212.143C48.7478 211.844 48.7814 211.546 48.8515 211.256C48.907 211.03 49.0354 210.831 49.2143 210.695C49.4347 210.555 49.6893 210.488 49.9453 210.504C50.1775 210.494 50.4084 210.544 50.6185 210.65C50.7908 210.751 50.9234 210.914 50.9919 211.11C51.0742 211.359 51.1134 211.621 51.1076 211.885V212.064H50.5238V211.918C50.526 211.747 50.5119 211.576 50.4818 211.408C50.4685 211.293 50.4138 211.188 50.3292 211.116C50.2135 211.038 50.0762 211.004 49.9401 211.021C49.8684 211.013 49.7959 211.02 49.7271 211.044C49.6584 211.067 49.5948 211.105 49.5404 211.155C49.4559 211.257 49.4027 211.385 49.3879 211.52C49.3657 211.695 49.3552 211.871 49.3563 212.047V213.804C49.3538 213.992 49.3696 214.18 49.4037 214.365C49.424 214.496 49.4873 214.616 49.5825 214.702C49.6909 214.784 49.823 214.824 49.9559 214.814C50.0906 214.826 50.2243 214.781 50.3292 214.691C50.4268 214.596 50.4916 214.47 50.5133 214.331C50.5477 214.133 50.5636 213.932 50.5606 213.731V213.4H49.9979V212.934H51.1234V215.285H50.7342L50.6711 214.724C50.6186 214.892 50.524 215.042 50.3976 215.156C50.2562 215.278 50.0796 215.343 49.898 215.342Z" fill="#263238"/>
<path d="M51.7755 215.286V210.533H52.396V214.809H53.5372V215.286H51.7755Z" fill="#263238"/>
<path d="M53.9948 215.286V210.533H54.6048V215.286H53.9948Z" fill="#263238"/>
<path d="M56.3718 215.337C56.1483 215.346 55.9271 215.286 55.7355 215.163C55.564 215.044 55.4288 214.874 55.3463 214.674C55.2521 214.448 55.2003 214.204 55.1938 213.956L55.7197 213.793C55.7305 213.958 55.7552 214.122 55.7933 214.282C55.8282 214.424 55.8929 214.557 55.9826 214.669C56.0314 214.719 56.0892 214.757 56.1525 214.782C56.2159 214.808 56.2833 214.819 56.3508 214.815C56.4179 214.82 56.4854 214.811 56.5489 214.787C56.6123 214.762 56.6702 214.724 56.7189 214.674C56.7649 214.618 56.7997 214.552 56.8214 214.48C56.8431 214.409 56.8511 214.334 56.8451 214.259C56.8528 214.073 56.8029 213.89 56.7031 213.737C56.6004 213.594 56.4841 213.462 56.356 213.344L55.6092 212.637C55.4723 212.515 55.3627 212.362 55.2884 212.188C55.2159 211.996 55.1853 211.789 55.199 211.582C55.1896 211.434 55.2096 211.286 55.2576 211.147C55.3057 211.007 55.3807 210.881 55.4778 210.774C55.5809 210.675 55.7014 210.599 55.8323 210.55C55.9631 210.501 56.1018 210.48 56.2403 210.488C56.3991 210.484 56.5573 210.509 56.7084 210.561C56.8359 210.606 56.9514 210.683 57.045 210.786C57.1381 210.897 57.2096 211.026 57.2553 211.167C57.3132 211.349 57.3503 211.537 57.3658 211.728L56.8399 211.88C56.8312 211.736 56.8101 211.593 56.7767 211.453C56.7515 211.33 56.6908 211.218 56.6032 211.133C56.5022 211.052 56.3771 211.012 56.2508 211.021C56.1862 211.016 56.1212 211.025 56.0598 211.047C55.9983 211.069 55.9417 211.104 55.8932 211.15C55.8037 211.258 55.7567 211.399 55.7618 211.543C55.7593 211.665 55.7826 211.786 55.8301 211.897C55.8889 212.007 55.9655 212.106 56.0563 212.188L56.8083 212.89C56.9815 213.053 57.132 213.242 57.2553 213.451C57.3854 213.685 57.451 213.953 57.4446 214.225C57.4506 214.437 57.4034 214.646 57.3079 214.832C57.221 214.996 57.0913 215.131 56.9345 215.219C56.7587 215.306 56.5656 215.347 56.3718 215.337Z" fill="#263238"/>
<path d="M57.9232 215.286V210.533H58.549V212.587H59.6902V210.533H60.3108V215.286H59.6902V213.042H58.549V215.286H57.9232Z" fill="#263238"/>
<path d="M95.8142 185.03C96.6977 185.445 98.8591 185.394 98.8591 185.394C98.8591 185.394 98.3963 183.885 98.3332 183.789C97.8599 182.734 96.3611 180.984 95.141 181.163C94.939 181.198 94.746 181.278 94.5748 181.397C94.4036 181.517 94.2579 181.674 94.1473 181.857C94.0366 182.041 93.9635 182.248 93.9327 182.464C93.9018 182.679 93.9139 182.9 93.9683 183.11C94.1944 184.014 95.0621 184.682 95.8142 185.03Z" fill="#DB4EDE"/>
<path d="M96.5609 191.712C97.476 191.852 99.4061 191.257 99.5586 191.207C99.8767 192.385 100.267 193.54 100.726 194.663C100.994 195.314 101.278 195.971 101.573 196.616C101.399 196.341 101.241 196.1 101.215 196.055C100.495 195.168 98.6172 193.906 97.4813 194.416C97.2954 194.508 97.1296 194.64 96.9946 194.804C96.8596 194.968 96.7583 195.16 96.6973 195.369C96.6363 195.577 96.617 195.797 96.6407 196.014C96.6643 196.23 96.7303 196.44 96.8344 196.627C97.2551 197.441 98.2596 197.84 99.0695 197.969C99.8794 198.098 101.546 197.621 101.983 197.492L102.33 198.232C102.888 199.422 103.45 200.601 103.971 201.779C104.15 202.194 104.318 202.61 104.497 203.025L104.181 202.548C103.461 201.661 101.583 200.399 100.447 200.909C100.261 201 100.096 201.132 99.9605 201.296C99.8256 201.461 99.7245 201.653 99.664 201.862C99.6035 202.07 99.5848 202.29 99.6092 202.507C99.6337 202.724 99.7006 202.933 99.8057 203.12C100.221 203.934 101.226 204.338 102.036 204.461C102.999 204.47 103.957 204.316 104.875 204.007C105.033 204.439 105.191 204.871 105.328 205.292C105.417 205.589 105.517 205.853 105.591 206.162C105.664 206.47 105.743 206.723 105.817 207.037C105.943 207.598 106.08 208.159 106.19 208.721C106.269 209.102 106.337 209.467 106.406 209.843C106.232 209.428 105.88 208.625 105.827 208.558C105.244 207.565 103.566 206.016 102.372 206.313C102.175 206.374 101.993 206.477 101.836 206.618C101.68 206.758 101.552 206.932 101.462 207.128C101.373 207.325 101.323 207.539 101.315 207.757C101.308 207.975 101.344 208.193 101.42 208.395C101.72 209.265 102.656 209.826 103.44 210.079C104.223 210.331 106.216 210.107 106.458 210.079C106.569 210.69 106.679 211.285 106.769 211.846C106.974 213.087 107.132 214.203 107.247 215.146H108.052C107.915 214.17 107.731 213.008 107.484 211.7C107.373 211.083 107.237 210.421 107.095 209.748C107.671 209.501 108.233 209.218 108.778 208.9C109.519 209.58 110.346 210.147 111.234 210.584C111.013 211.145 110.792 211.706 110.581 212.267C110.134 213.362 109.708 214.332 109.335 215.163H110.208C110.529 214.4 110.881 213.53 111.26 212.57C111.486 212.009 111.717 211.353 111.949 210.707C112.18 210.758 114.052 211.167 114.957 210.954C115.756 210.763 116.729 210.281 117.06 209.433C117.151 209.238 117.202 209.024 117.211 208.806C117.219 208.587 117.184 208.37 117.108 208.167C117.032 207.964 116.917 207.781 116.77 207.629C116.623 207.477 116.448 207.359 116.256 207.284C115.088 206.863 113.311 208.283 112.653 209.226C112.617 209.282 112.264 209.933 112.043 210.348C112.138 210.084 112.233 209.826 112.322 209.551C112.511 208.99 112.68 208.468 112.848 207.868C112.927 207.581 113.006 207.307 113.09 206.998C113.174 206.689 113.232 206.392 113.311 206.089C113.469 205.376 113.595 204.647 113.71 203.911C114.158 204.085 115.746 204.675 116.566 204.613C117.387 204.551 118.412 204.226 118.885 203.451C119.001 203.273 119.081 203.071 119.119 202.857C119.157 202.644 119.153 202.425 119.107 202.213C119.061 202.002 118.974 201.803 118.852 201.63C118.729 201.456 118.574 201.312 118.396 201.207C117.302 200.606 115.341 201.717 114.562 202.542C114.515 202.593 114.037 203.255 113.753 203.625C113.816 203.182 113.884 202.739 113.937 202.29C114.089 200.982 114.205 199.663 114.326 198.361C114.363 197.957 114.399 197.559 114.441 197.155C114.599 197.217 116.471 197.963 117.397 197.89C118.212 197.834 119.243 197.509 119.716 196.734C119.832 196.556 119.912 196.353 119.95 196.14C119.988 195.927 119.984 195.707 119.938 195.496C119.892 195.285 119.805 195.086 119.683 194.912C119.56 194.739 119.405 194.595 119.227 194.489C118.133 193.889 116.172 195 115.388 195.825C115.33 195.887 114.62 196.841 114.447 197.093C114.536 196.207 114.631 195.32 114.757 194.456C114.924 193.283 115.162 192.123 115.467 190.982C115.541 191.016 117.492 191.801 118.438 191.728C119.259 191.667 120.284 191.347 120.758 190.572C120.874 190.394 120.953 190.192 120.991 189.979C121.03 189.765 121.026 189.546 120.98 189.334C120.933 189.123 120.846 188.924 120.724 188.751C120.601 188.577 120.446 188.433 120.268 188.328C119.175 187.727 117.213 188.833 116.435 189.663C116.372 189.725 115.604 190.752 115.478 190.948C115.478 190.881 115.509 190.814 115.53 190.746C115.867 189.613 116.298 188.515 116.819 187.464C117.097 186.902 117.397 186.341 117.697 185.814C118.044 186.005 119.653 186.835 120.51 186.869C121.368 186.902 122.383 186.706 122.935 185.993C123.07 185.829 123.171 185.637 123.232 185.428C123.293 185.22 123.312 185 123.288 184.783C123.264 184.566 123.198 184.357 123.094 184.169C122.989 183.981 122.849 183.819 122.682 183.693C121.631 182.969 119.59 183.838 118.733 184.574C118.685 184.613 118.249 185.073 117.939 185.41C118.081 185.18 118.217 184.933 118.354 184.714C118.88 183.889 119.406 183.165 119.858 182.525C120.121 182.166 120.384 181.846 120.605 181.549C121.036 181.549 122.782 181.487 123.545 181.106C124.307 180.724 125.122 180.034 125.317 179.13C125.366 178.918 125.373 178.698 125.337 178.483C125.301 178.268 125.222 178.063 125.107 177.883C124.992 177.702 124.843 177.55 124.669 177.435C124.495 177.32 124.3 177.246 124.097 177.217C122.872 177.076 121.42 178.866 120.973 179.938C120.931 180.028 120.484 181.549 120.505 181.549H120.531C120.3 181.829 120.058 182.11 119.795 182.475C119.317 183.103 118.78 183.816 118.244 184.635C117.659 185.509 117.123 186.42 116.64 187.363C116.092 188.415 115.632 189.517 115.267 190.657C115.267 190.657 115.267 190.685 115.267 190.696C115.267 190.314 115.267 189.237 115.267 189.153C115.13 187.991 114.215 185.831 113.006 185.595C112.804 185.561 112.597 185.572 112.4 185.629C112.202 185.686 112.018 185.786 111.859 185.924C111.701 186.061 111.571 186.233 111.478 186.428C111.386 186.623 111.333 186.836 111.323 187.054C111.255 187.98 111.88 188.906 112.49 189.489C113.185 190.146 115.12 190.786 115.251 190.836C114.908 192.005 114.637 193.198 114.441 194.405C114.326 195.107 114.226 195.819 114.136 196.532C114.136 196.201 114.136 195.904 114.136 195.859C113.994 194.697 113.085 192.537 111.87 192.301C111.668 192.267 111.462 192.278 111.265 192.335C111.067 192.392 110.884 192.492 110.725 192.63C110.567 192.768 110.438 192.939 110.346 193.134C110.254 193.329 110.202 193.542 110.192 193.76C110.119 194.686 110.75 195.612 111.36 196.195C111.97 196.779 113.605 197.368 114.037 197.514L113.942 198.339C113.795 199.652 113.653 200.971 113.474 202.267C113.416 202.722 113.337 203.165 113.263 203.614C113.263 203.317 113.263 203.053 113.263 203.053C113.121 201.886 112.212 199.731 110.997 199.489C110.794 199.455 110.587 199.467 110.39 199.524C110.192 199.581 110.007 199.682 109.848 199.82C109.69 199.958 109.56 200.131 109.468 200.326C109.376 200.522 109.323 200.736 109.314 200.954C109.246 201.874 109.871 202.8 110.487 203.384C111.284 203.956 112.161 204.392 113.085 204.675C112.995 205.129 112.906 205.584 112.801 206.016C112.722 206.313 112.664 206.577 112.569 206.891C112.475 207.206 112.396 207.452 112.312 207.755C112.122 208.317 111.938 208.878 111.744 209.383C111.612 209.753 111.481 210.096 111.349 210.443C111.418 209.995 111.528 209.108 111.528 209.035C111.517 208.003 111.256 206.992 110.771 206.1C110.781 205.984 110.781 205.868 110.771 205.752C110.744 205.536 110.676 205.328 110.57 205.141C110.463 204.955 110.322 204.795 110.154 204.67C109.986 204.546 109.795 204.461 109.594 204.42C109.394 204.379 109.187 204.384 108.988 204.433C107.799 204.776 107.047 207.003 106.99 208.171C106.99 208.244 107.026 208.996 107.063 209.473C107.005 209.198 106.947 208.911 106.884 208.642C106.758 208.081 106.616 207.52 106.469 206.925C106.39 206.639 106.306 206.364 106.222 206.055C106.138 205.746 106.032 205.494 105.938 205.168C105.701 204.484 105.412 203.799 105.144 203.12C105.606 203.002 107.247 202.559 107.889 201.998C108.53 201.437 109.23 200.589 109.225 199.663C109.231 199.445 109.193 199.227 109.115 199.026C109.036 198.824 108.919 198.642 108.77 198.492C108.621 198.342 108.444 198.227 108.25 198.155C108.057 198.083 107.851 198.056 107.647 198.075C106.422 198.216 105.359 200.32 105.138 201.442C105.138 201.515 105.054 202.357 105.023 202.823C104.844 202.413 104.67 202.009 104.497 201.599C103.971 200.421 103.366 199.254 102.782 198.081C102.604 197.722 102.43 197.363 102.256 197.003C102.419 196.964 104.36 196.482 105.102 195.881C105.754 195.348 106.443 194.473 106.437 193.547C106.443 193.328 106.406 193.11 106.327 192.908C106.249 192.706 106.132 192.524 105.983 192.373C105.834 192.223 105.657 192.107 105.463 192.035C105.27 191.963 105.064 191.935 104.86 191.953C103.634 192.093 102.572 194.198 102.351 195.32C102.351 195.404 102.23 196.622 102.22 196.931C101.83 196.139 101.457 195.348 101.11 194.546C100.643 193.471 100.243 192.365 99.9109 191.235C99.9898 191.235 102.015 190.724 102.772 190.112C103.424 189.551 104.118 188.709 104.108 187.783C104.113 187.565 104.076 187.347 103.998 187.145C103.919 186.943 103.802 186.76 103.653 186.61C103.504 186.459 103.327 186.344 103.133 186.272C102.94 186.199 102.734 186.171 102.53 186.19C101.305 186.33 100.242 188.434 100.021 189.557C100.021 189.647 99.8951 190.954 99.8899 191.19C99.8899 191.122 99.8426 191.061 99.8268 190.993C99.524 189.85 99.3163 188.68 99.2062 187.497C99.1378 186.846 99.1063 186.218 99.0853 185.606C99.4744 185.556 101.247 185.303 101.978 184.832C102.709 184.36 103.455 183.592 103.555 182.666C103.584 182.449 103.569 182.229 103.512 182.02C103.455 181.81 103.357 181.615 103.226 181.449C103.094 181.282 102.93 181.147 102.746 181.052C102.562 180.957 102.361 180.905 102.157 180.898C100.926 180.898 99.6532 182.84 99.3167 183.956C99.3167 184.018 99.1747 184.658 99.0905 185.124C99.0905 184.849 99.0905 184.562 99.0905 184.299C99.0905 183.305 99.1484 182.396 99.2062 181.588C99.243 181.134 99.2851 180.718 99.3272 180.331C99.6848 180.073 101.11 179.001 101.546 178.232C101.983 177.464 102.325 176.403 102.004 175.544C101.936 175.338 101.829 175.15 101.688 174.991C101.547 174.833 101.376 174.708 101.187 174.625C100.998 174.541 100.794 174.502 100.59 174.509C100.385 174.515 100.184 174.568 100 174.663C98.9065 175.264 98.6172 177.615 98.796 178.771C98.796 178.872 99.2273 180.404 99.2483 180.393C99.1957 180.763 99.1484 181.162 99.1063 181.599C99.0327 182.402 98.9538 183.317 98.9328 184.31C98.8958 185.384 98.9203 186.46 99.0064 187.531C99.092 188.732 99.2786 189.923 99.5638 191.089C99.5661 191.102 99.5661 191.115 99.5638 191.128C99.3745 190.803 98.8013 189.916 98.7487 189.854C98.0335 188.968 96.1507 187.705 95.0201 188.216C94.8342 188.307 94.6684 188.439 94.5334 188.603C94.3983 188.767 94.2971 188.959 94.2361 189.168C94.1751 189.376 94.1558 189.596 94.1795 189.813C94.2031 190.029 94.2691 190.239 94.3732 190.427C94.7466 191.184 95.7458 191.583 96.5609 191.712Z" fill="#DB4EDE"/>
<path d="M117.671 185.539C117.671 185.539 118.065 184.007 118.081 183.906C118.233 182.744 117.886 180.404 116.776 179.832C116.59 179.742 116.388 179.696 116.183 179.695C115.979 179.695 115.776 179.74 115.589 179.829C115.402 179.917 115.235 180.046 115.098 180.208C114.961 180.37 114.857 180.562 114.794 180.769C114.494 181.639 114.873 182.711 115.32 183.446C115.84 184.31 117.671 185.539 117.671 185.539Z" fill="#DB4EDE"/>
<path d="M114.873 227.636H103.061L101.583 213.641H116.351L114.873 227.636Z" fill="white" stroke="#DB4EDE" stroke-linecap="round" stroke-linejoin="round"/>
<path d="M101.857 216.207L101.999 217.559H115.935L116.082 216.207H101.857Z" fill="#DB4EDE"/>
<path d="M115.625 220.546L115.767 219.188H102.172L102.314 220.546H115.625Z" fill="#DB4EDE"/>
<path d="M45.7644 23.7283V15.9785H39.4273V23.7283L19.8429 33.0324H65.3541L45.7644 23.7283Z" fill="#263238" stroke="#263238" stroke-linecap="round" stroke-linejoin="round"/>
<path d="M42.7615 15.9495V1" stroke="#263238" stroke-linecap="round" stroke-linejoin="round"/>
<path d="M173.957 52.5879H37.2554V161.898H173.957V52.5879Z" fill="white" stroke="#DB4EDE" stroke-linecap="round" stroke-linejoin="round"/>
<path d="M179.18 161.6H32.0332V167.402H179.18V161.6Z" fill="white" stroke="#DB4EDE" stroke-linecap="round" stroke-linejoin="round"/>
<path d="M169.419 56.2188H41.7939V158.273H169.419V56.2188Z" fill="#FAFDFF" stroke="#DB4EDE" stroke-linecap="round" stroke-linejoin="round"/>
<path d="M158.549 80.9219C158.549 80.9219 158.585 80.9219 158.606 80.9219C158.627 80.9219 158.559 80.9612 158.549 80.9219Z" fill="#DB4EDE"/>
<path d="M159.143 80.4281C159.002 80.6245 158.823 80.7855 158.617 80.8995C158.701 80.7424 158.896 80.271 159.143 80.4281Z" fill="#DB4EDE"/>
<path d="M150.944 91.0332C150.999 91.0432 151.048 91.0754 151.081 91.123L150.944 91.0332Z" fill="#DB4EDE"/>
<path d="M150.224 91.123C150.187 91.1402 150.154 91.1629 150.124 91.1904C150.139 91.1567 150.171 91.1399 150.224 91.123Z" fill="#DB4EDE"/>
<path d="M151.254 90.6074L151.197 90.6972C151.204 90.6604 151.225 90.6283 151.254 90.6074Z" fill="#DB4EDE"/>
<path d="M155.12 85.5229C155.222 85.5103 155.324 85.4916 155.425 85.4668C155.356 85.6688 155.22 85.5566 155.12 85.5229Z" fill="#DB4EDE"/>
<path d="M147.384 92.0059L147.431 92.09C147.384 92.0564 147.352 92.0564 147.384 92.0059Z" fill="#DB4EDE"/>
<path d="M149.109 90.2148C149.138 90.2384 149.161 90.2692 149.177 90.3046H149.146L149.109 90.2148Z" fill="#DB4EDE"/>
<path d="M151.391 90.1816H151.486C151.48 90.1888 151.473 90.1945 151.464 90.1985C151.456 90.2024 151.447 90.2044 151.438 90.2044C151.429 90.2044 151.421 90.2024 151.412 90.1985C151.404 90.1945 151.397 90.1888 151.391 90.1816Z" fill="#DB4EDE"/>
<path d="M146.774 92.5322C146.705 92.5214 146.638 92.5026 146.574 92.4761C146.608 92.4614 146.647 92.4589 146.683 92.469C146.718 92.4791 146.75 92.5013 146.774 92.5322Z" fill="#DB4EDE"/>
<path d="M149.714 89.6538L149.598 89.7267C149.606 89.7021 149.622 89.6813 149.643 89.668C149.664 89.6546 149.689 89.6496 149.714 89.6538Z" fill="#DB4EDE"/>
<path d="M155.12 85.5236H155.02C155.041 85.5079 155.072 85.5131 155.12 85.5236Z" fill="#DB4EDE"/>
<path d="M158.275 81.5613C158.223 81.623 158.17 81.595 158.112 81.5613C158.166 81.5473 158.222 81.5473 158.275 81.5613Z" fill="#DB4EDE"/>
<path d="M141.404 94.8594L141.362 94.9267C141.331 94.9155 141.357 94.8594 141.404 94.8594Z" fill="#DB4EDE"/>
<path d="M141.751 95.2883C141.735 95.2761 141.722 95.2601 141.713 95.2416C141.704 95.2231 141.699 95.2025 141.699 95.1816C141.723 95.2126 141.741 95.249 141.751 95.2883Z" fill="#DB4EDE"/>
<path d="M148.762 93.4863C148.751 93.4747 148.743 93.4605 148.738 93.4448C148.733 93.4292 148.733 93.4126 148.735 93.3965C148.755 93.4215 148.764 93.4538 148.762 93.4863Z" fill="#DB4EDE"/>
<path d="M149.109 93.239L149.119 93.2285H149.14L149.109 93.239Z" fill="#DB4EDE"/>
<path d="M158.317 81.7972C158.517 81.8702 158.28 81.887 158.233 81.9431C158.275 81.887 158.201 81.7692 158.317 81.7972Z" fill="#DB4EDE"/>
<path d="M157.707 81.9995C157.778 82.0057 157.848 81.9859 157.907 81.9434C157.881 81.9826 157.833 82.0107 157.707 81.9995Z" fill="#DB4EDE"/>
<path d="M158.075 81.707C158.04 81.8003 157.982 81.8817 157.907 81.9427C157.949 81.881 157.933 81.78 158.075 81.707Z" fill="#DB4EDE"/>
<path d="M156.745 83.1942C156.887 83.1942 156.955 83.0371 156.955 83.0371C156.792 83.4019 157.171 83.1437 157.255 83.183C157.071 83.3289 156.96 83.2223 156.745 83.1942Z" fill="#DB4EDE"/>
<path d="M156.377 83.5309C156.398 83.503 156.415 83.4705 156.424 83.4355C156.424 83.4543 156.419 83.4728 156.411 83.4894C156.403 83.506 156.391 83.5202 156.377 83.5309Z" fill="#DB4EDE"/>
<path d="M156.366 83.715C156.261 83.7935 156.135 83.715 156.019 83.715C156.051 83.5242 156.277 83.6027 156.377 83.541C156.319 83.5971 156.245 83.6364 156.366 83.715Z" fill="#DB4EDE"/>
<path d="M154.22 87.2057C154.252 87.2057 154.299 87.1384 154.352 87.2057L154.215 87.3741C154.126 87.3909 154.205 87.2506 154.22 87.2057Z" fill="#DB4EDE"/>
<path d="M153.432 87.5664C153.311 87.6843 153.51 87.7572 153.432 87.7909L153.253 87.6001L153.432 87.5664Z" fill="#DB4EDE"/>
<path d="M152.553 86.55L152.606 86.5332L152.564 86.5669L152.553 86.55Z" fill="#DB4EDE"/>
<path d="M153.069 88.3691L153.358 88.4814C153.205 88.5375 153.042 88.3748 153.069 88.3691Z" fill="#DB4EDE"/>
<path d="M152.774 89.0034L152.906 88.9922L152.638 89.1718L152.774 89.0034Z" fill="#DB4EDE"/>
<path d="M152.154 89.5078L152.18 89.5752L151.985 89.6874L152.154 89.5078Z" fill="#DB4EDE"/>
<path d="M146.295 95.9035C146.095 95.7576 146.4 95.5668 146.421 95.4434C146.595 95.7127 146.179 95.5837 146.295 95.9035Z" fill="#DB4EDE"/>
<path d="M141.972 95.5117L142.067 95.8428C141.878 95.652 142.041 95.7811 141.972 95.5117Z" fill="#DB4EDE"/>
<path d="M247.515 227.641H1.58893" stroke="#263238" stroke-linecap="round" stroke-linejoin="round"/>
<path d="M159.38 97.9241L150.034 96.0723L149.745 97.8231L158.996 100.91L159.38 97.9241Z" fill="#DB4EDE" stroke="#263238" stroke-linecap="round" stroke-linejoin="round"/>
<path d="M166.989 90.1118C166.989 90.1118 159.669 90.2128 159.101 90.1118C158.533 90.0108 158.233 92.3565 157.849 93.1982C157.465 94.04 155.151 96.9973 155.746 97.5136C156.34 98.0299 158.443 97.5136 158.733 97.1039C159.022 96.6943 159.884 94.9434 159.884 94.9434C160.285 95.0862 160.653 95.3147 160.968 95.6148C161.283 95.9148 161.537 96.2803 161.715 96.6887C161.944 97.297 162.02 97.9588 161.936 98.6084C161.853 99.258 161.611 99.873 161.236 100.392C160.852 100.701 158.054 99.7751 157.555 99.5675C157.247 99.3804 156.89 99.3092 156.54 99.3652C156.19 99.4211 155.867 99.6011 155.625 99.8761C154.762 100.701 154.278 101.936 155.046 102.446C155.814 102.957 157.071 102.755 157.555 102.963C158.039 103.17 160.926 105.533 162.756 106.043C164.586 106.554 168.441 108.002 168.441 108.002L180.095 130L184.828 138.327L193.09 122.615C193.09 122.615 179.816 111.296 177.507 109.034C175.199 106.773 172.69 103.984 172.401 102.968C172.112 101.952 169.608 92.1713 168.93 90.8357C168.761 90.4668 168.462 90.1839 168.099 90.0483C167.736 89.9128 167.337 89.9356 166.989 90.1118Z" fill="white" stroke="#263238" stroke-linecap="round" stroke-linejoin="round"/>
<path d="M230.576 227.637L227.315 194.932L182.487 197.367L183.103 227.637H230.576Z" fill="#263238" stroke="#263238" stroke-linecap="round" stroke-linejoin="round"/>
<path d="M208.446 204.529C208.628 206.887 209.675 209.074 211.359 210.612C214.147 213.042 218.196 214.26 218.196 214.26" stroke="white" stroke-linecap="round" stroke-linejoin="round"/>
<path d="M217.565 204.26L220.731 226.83" stroke="white" stroke-linecap="round" stroke-linejoin="round"/>
<path d="M189.303 205.342C189.303 205.342 189.829 222.233 190.192 222.502C190.555 222.772 193.484 224.528 193.484 224.528L193.1 215.611" stroke="white" stroke-linecap="round" stroke-linejoin="round"/>
<path d="M186.916 200.074L187.552 203.991L193.884 204.126L194.01 200.344L186.916 200.074Z" stroke="#263238" stroke-linecap="round" stroke-linejoin="round"/>
<path d="M227.315 194.938L182.466 197.367L182.566 202.39C188.015 204.013 193.68 204.654 199.327 204.287C209.235 203.686 220.542 201.481 227.646 198.248L227.315 194.938Z" fill="white" stroke="#263238" stroke-linecap="round" stroke-linejoin="round"/>
<path d="M190.786 119.897C190.786 119.897 187.268 123.781 186.448 126.53C185.627 129.28 182.577 135.161 181.288 142.67C180 150.178 178.591 161.564 179.295 169.443C180 177.322 181.757 191.592 181.288 194.971C180.82 198.349 180.936 199.095 182.225 199.847C183.513 200.599 194.299 202.603 206.132 201.48C217.965 200.358 228.062 196.598 228.409 195.352C228.887 192.924 229.123 190.449 229.114 187.967C229.114 185.341 228.761 169.202 228.761 168.573C228.761 167.945 230.171 140.924 230.754 136.025C231.338 131.126 231.927 127.047 226.768 122.765C221.609 118.483 211.291 111.379 211.291 111.379C211.291 111.379 198.054 112.518 190.786 119.897Z" fill="white" stroke="#263238" stroke-linecap="round" stroke-linejoin="round"/>
<path d="M187.657 167.008C187.752 169.028 187.825 170.408 187.825 170.605" stroke="#263238" stroke-linecap="round" stroke-linejoin="round"/>
<path d="M194.105 125.725C194.105 125.725 187.399 143.991 187.268 150.977C187.184 155.091 187.399 160.932 187.589 165.18" stroke="#263238" stroke-linecap="round" stroke-linejoin="round"/>
<path d="M210.986 163.475C211.337 163.729 211.699 163.976 212.075 164.215" stroke="#263238" stroke-linecap="round" stroke-linejoin="round"/>
<path d="M197.954 150.365C197.954 150.365 203.087 157.419 209.676 162.503" stroke="#263238" stroke-linecap="round" stroke-linejoin="round"/>
<path d="M206.658 164.062C208.367 166.081 210.6 167.512 213.074 168.17" stroke="#263238" stroke-linecap="round" stroke-linejoin="round"/>
<path d="M195.677 112.857L189.419 119.642L194.588 123.884L197.865 116.146L195.677 112.857Z" fill="white" stroke="#263238" stroke-linecap="round" stroke-linejoin="round"/>
<path d="M194.389 105.752C194.389 105.752 195.383 112.857 195.383 113.496C195.383 114.136 194.562 123.884 194.562 123.884C194.562 123.884 200.347 119.22 201.62 117.946C202.892 116.673 209.366 109.147 209.366 109.147C209.366 109.147 209.566 105.118 209.666 102.683C209.766 100.247 209.966 94.5176 209.966 94.5176C209.966 94.5176 205.79 101.515 202.908 103.637C200.026 105.758 194.389 105.752 194.389 105.752Z" fill="white" stroke="#263238" stroke-linecap="round" stroke-linejoin="round"/>
<path d="M205.29 102.861C205.29 102.861 203.087 107.57 200.384 110.319C197.681 113.069 195.677 112.856 195.677 112.856L194.625 107.704L205.29 102.861Z" fill="#263238" stroke="#263238" stroke-linecap="round" stroke-linejoin="round"/>
<path d="M186.9 76.2915C186.9 76.2915 186.626 94.2489 187.583 96.718C188.541 99.1871 191.412 105.764 193.048 106.931C194.683 108.099 199.201 108.536 201.252 107.661C203.303 106.785 206.584 102.846 208.498 99.8044C210.413 96.7629 210.549 92.6159 210.549 92.6159C210.549 92.6159 214.515 91.5945 215.609 89.9896C216.702 88.3846 217.523 84.0075 215.882 82.9862C214.241 81.9649 211.643 83.4239 211.643 83.4239C211.643 83.4239 211.917 79.3386 210.823 78.4632C209.729 77.5878 208.225 75.5451 208.088 74.535L207.952 73.5137C204.887 74.6907 201.73 75.5697 198.517 76.1399C193.868 76.9031 186.9 76.2915 186.9 76.2915Z" fill="white" stroke="#263238" stroke-linecap="round" stroke-linejoin="round"/>
<path d="M195.356 82.8066C195.356 82.8066 195.488 84.7651 195.745 86.7348C196.003 88.7045 194.567 94.8549 194.304 95.7135C194.041 96.5721 196.271 96.9762 198.633 95.7135" stroke="#263238" stroke-linecap="round" stroke-linejoin="round"/>
<path d="M196.14 99.3488C196.14 99.3488 200.468 100.185 203.092 96.543" stroke="#263238" stroke-linecap="round" stroke-linejoin="round"/>
<path d="M190.355 82.3502C190.355 82.3502 192.285 80.7453 194.22 81.6656" stroke="#263238" stroke-width="3" stroke-linecap="round" stroke-linejoin="round"/>
<path d="M199.884 81.9535C199.884 81.9535 202.603 80.8817 204.68 83.0253" stroke="#263238" stroke-width="3" stroke-linecap="round" stroke-linejoin="round"/>
<path d="M194.32 87.0889C194.32 87.9362 193.984 88.6209 193.568 88.6209C193.153 88.6209 192.816 87.9362 192.816 87.0889C192.816 86.2415 193.153 85.5625 193.568 85.5625C193.984 85.5625 194.32 86.2471 194.32 87.0889Z" fill="#263238"/>
<path d="M202.866 87.3955C202.866 88.2373 202.529 88.9219 202.114 88.9219C201.699 88.9219 201.362 88.2373 201.362 87.3955C201.362 86.5538 201.699 85.8691 202.114 85.8691C202.529 85.8691 202.866 86.5482 202.866 87.3955Z" fill="#263238"/>
<path d="M192.09 59.0794C192.09 59.0794 181.841 64.764 181.157 67.5362C180.473 70.3084 185.943 68.4116 185.943 68.4116C185.943 68.4116 178.833 72.6428 178.833 75.1456C178.833 77.6485 185.532 77.4801 192.911 77.626C200.289 77.7719 208.088 74.562 208.088 74.562C208.088 74.562 206.721 75.7293 208.614 77.4801C209.432 78.2719 210.3 79.0031 211.212 79.6687L210.802 84.3376C211.487 83.7712 212.281 83.3727 213.126 83.1704L214.22 83.0245L214.746 77.626C214.746 77.626 218.164 76.4588 217.071 68.8718C215.977 61.2848 209.96 57.2051 202.871 57.2051C195.782 57.2051 192.09 59.0794 192.09 59.0794Z" fill="#DB4EDE" stroke="#263238" stroke-linecap="round" stroke-linejoin="round"/>
<path d="M209.608 70.8867C207.725 72.3233 204.602 73.9507 199.863 74.3323C191.002 75.0394 189.229 74.2144 191.449 72.7947C193.668 71.3749 195.104 72.082 195.104 72.082" stroke="#263238" stroke-linecap="round" stroke-linejoin="round"/>
<path d="M211.943 68.5352C211.618 69.0085 211.246 69.4431 210.833 69.8315" stroke="#263238" stroke-linecap="round" stroke-linejoin="round"/>
<path d="M211.391 65.6797C211.391 65.6797 208.846 67.5708 203.86 67.6887" stroke="#263238" stroke-linecap="round" stroke-linejoin="round"/>
<path d="M209.987 106.283L195.577 121.019L200.847 128.124L213.063 110.419L209.987 106.283Z" fill="white" stroke="#263238" stroke-linecap="round" stroke-linejoin="round"/>
<path d="M189.419 119.641L188.625 126.425L193.074 122.609L189.419 119.641Z" fill="white" stroke="#263238" stroke-linecap="round" stroke-linejoin="round"/>
<path d="M195.577 121.021L194.588 123.883L196.976 122.66L195.577 121.021Z" fill="white" stroke="#263238" stroke-linecap="round" stroke-linejoin="round"/>
<path d="M209.897 146.303L221.383 176.331C221.383 176.331 223.024 174.204 226.894 172.964C230.765 171.724 236.155 171.842 236.155 171.842C236.155 171.842 230.528 154.951 230.896 151.197C231.265 147.442 229.592 134.143 229.592 134.143" fill="white"/>
<path d="M209.897 146.303L221.383 176.331C221.383 176.331 223.024 174.204 226.894 172.964C230.765 171.724 236.155 171.842 236.155 171.842C236.155 171.842 230.528 154.951 230.896 151.197C231.265 147.442 229.592 134.143 229.592 134.143" stroke="#263238" stroke-linecap="round" stroke-linejoin="round"/>
<path d="M238.738 181.085C238.738 181.085 235.777 186.489 231.706 189.968C229.177 192.123 223.886 196.141 211.07 199.974C209.245 200.535 205.443 201.225 204.759 199.603C204.076 197.981 204.991 194.845 206.163 194.098C207.336 193.352 217.775 189.216 219.064 187.465C220.352 185.714 222.582 177.207 222.582 177.207C222.582 177.207 230.67 172.824 234.304 174.575C237.938 176.326 238.859 179.833 238.738 181.085Z" fill="white" stroke="#263238" stroke-linecap="round" stroke-linejoin="round"/>
<path d="M218.922 178.473C218.922 178.473 220.915 172.463 227.015 170.712C233.116 168.962 235.693 168.21 236.513 169.214C237.333 170.219 239.558 175.718 239.91 177.598C240.263 179.478 238.738 181.1 238.738 181.1C238.738 181.1 237.097 176.846 233.815 176.217C230.534 175.589 223.497 179.472 221.62 180.348C219.742 181.223 218.922 178.473 218.922 178.473Z" fill="white" stroke="#263238" stroke-linecap="round" stroke-linejoin="round"/>
<path d="M175.367 174.074L176.029 172.772C176.029 172.772 183.792 175.14 188.004 175.97C192.217 176.801 196.987 177.979 198.648 178.81C200.31 179.641 202.082 182.121 202.082 182.121C202.309 181.122 202.776 180.204 203.438 179.457C204.099 178.71 204.932 178.16 205.853 177.862C209.066 176.795 223.371 171.234 224.701 170.645L226.584 169.814L227.015 170.695L202.193 183.894L175.367 174.074Z" fill="white" stroke="#263238" stroke-linecap="round" stroke-linejoin="round"/>
<path d="M175.367 174.074L176.697 191.701L202.193 196.319L202.082 182.121L175.367 174.074Z" fill="#DB4EDE" stroke="#263238" stroke-linecap="round" stroke-linejoin="round"/>
<path d="M202.082 182.121L227.015 170.695L224.591 189.691L202.193 196.318L202.082 182.121Z" fill="#DB4EDE" stroke="#263238" stroke-linecap="round" stroke-linejoin="round"/>
<path d="M208.761 196.222C208.761 196.222 210.339 193.798 210.576 192.749C210.812 191.699 210.05 189.444 210.576 188.069C211.102 186.694 211.559 184.999 212.679 184.112C213.799 183.226 214.42 182.014 212.758 182.014C211.096 182.014 208.446 184.679 207.61 186.211C206.773 187.743 206.253 188.955 204.812 189.522C203.371 190.089 200.121 190.167 197.928 189.281C195.735 188.394 189.077 185.246 187.489 184.438C185.901 183.63 184.765 183.877 185.222 185.083C185.68 186.29 188.903 188.31 189.908 189.281C190.512 189.877 191.07 190.524 191.575 191.217C189.755 190.701 187.963 190.081 186.206 189.359C183.481 188.237 182.193 188.394 182.345 189.601C182.498 190.807 185.827 192.266 186.353 192.67C186.879 193.074 188.625 195.656 189.608 196.385C190.592 197.115 192.764 197.754 195.661 198.158C198.559 198.563 202.619 200.403 204.964 200.74C206.637 200.898 208.323 200.763 209.955 200.341" fill="white"/>
<path d="M208.761 196.222C208.761 196.222 210.339 193.798 210.576 192.749C210.812 191.699 210.05 189.444 210.576 188.069C211.102 186.694 211.559 184.999 212.679 184.112C213.799 183.226 214.42 182.014 212.758 182.014C211.096 182.014 208.446 184.679 207.61 186.211C206.773 187.743 206.253 188.955 204.812 189.522C203.371 190.089 200.121 190.167 197.928 189.281C195.735 188.394 189.077 185.246 187.489 184.438C185.901 183.63 184.765 183.877 185.222 185.083C185.68 186.29 188.903 188.31 189.908 189.281C190.512 189.877 191.07 190.524 191.575 191.217C189.755 190.701 187.963 190.081 186.206 189.359C183.481 188.237 182.193 188.394 182.345 189.601C182.498 190.807 185.827 192.266 186.353 192.67C186.879 193.074 188.625 195.656 189.608 196.385C190.592 197.115 192.764 197.754 195.661 198.158C198.559 198.563 202.619 200.403 204.964 200.74C206.637 200.898 208.323 200.763 209.955 200.341" stroke="#263238" stroke-linecap="round" stroke-linejoin="round"/>
<path d="M186.342 192.67C186.342 192.67 191.112 194.915 192.395 195.414C192.985 195.653 193.592 195.841 194.21 195.975" stroke="#263238" stroke-linecap="round" stroke-linejoin="round"/>
<g clip-path="url(#clip0_43_292)">
<path d="M95.785 59.2827C89.575 60.8912 83.275 66.2844 80.44 72.4345C79.405 74.7053 78.73 75.6514 78.145 75.6514C77.695 75.6514 75.67 76.503 73.69 77.5438C61.315 84.0723 57.265 100.441 65.05 112.647C66.715 115.296 66.805 115.627 66.4 117.236C65.77 119.648 65.86 126.082 66.58 128.921C69.415 140.085 79.99 147.986 90.565 146.898L93.4 146.567L95.965 148.79C107.71 158.82 124.765 155.035 131.335 140.937C132.73 137.909 132.865 137.815 135.295 137.01C138.445 136.017 142.765 133.037 145.15 130.151C147.49 127.36 149.875 122.203 150.595 118.324C151.675 112.363 150.145 105.219 146.77 100.252C145.15 97.8864 145.105 97.6972 145.555 95.7102C146.23 92.919 146.185 87.242 145.42 84.3089C143.485 76.6449 138.22 70.5894 130.975 67.609C128.77 66.7102 127.33 66.4736 123.235 66.379L118.195 66.2844L116.17 64.4394C110.95 59.6139 102.715 57.5323 95.785 59.2827ZM106.945 65.9532C109.06 66.7575 111.85 68.4606 111.85 68.981C111.85 69.1702 111.31 69.6433 110.635 70.0217C100.195 76.2665 93.085 80.6661 92.635 81.2811C92.185 81.8015 92.05 85.4443 92.05 95.8521C92.05 103.469 91.915 109.713 91.735 109.713C91.51 109.713 89.755 108.72 87.775 107.443L84.175 105.219L84.04 94.3383C83.995 88.3301 84.13 82.0854 84.355 80.4296C86.02 69.1229 96.82 62.2159 106.945 65.9532ZM127.375 73.0495C134.71 75.0837 139.57 81.3758 140.11 89.5601C140.335 92.919 140.245 93.2975 139.57 93.0136C139.165 92.8244 134.8 90.2697 129.85 87.242C124.81 84.167 120.4 81.8015 119.77 81.8015C119.095 81.8015 114.01 84.5927 107.755 88.4247C101.815 92.0675 96.73 95.0479 96.505 95.0479C96.235 95.0479 96.1 93.2029 96.19 90.459L96.325 85.8701L106.36 79.8146C118.87 72.2452 121.39 71.441 127.375 73.0495ZM78.1 94.0544C78.1 104.604 78.19 105.929 78.91 106.78C79.315 107.301 81.7 108.957 84.175 110.423C96.46 117.756 101.5 120.831 101.5 121.068C101.5 121.209 99.79 122.298 97.72 123.575L93.94 125.798L84.085 119.837C78.235 116.289 73.42 112.978 72.205 111.748C65.725 105.172 65.32 94.3856 71.26 87.4312C73.195 85.1604 76.84 82.2746 77.74 82.2746C77.92 82.2746 78.1 87.5732 78.1 94.0544ZM123.055 90.4117C125.665 91.9728 130.075 94.6694 132.865 96.3252C140.605 100.961 143.575 104.699 144.745 111.275C145.555 116.1 143.89 122.061 140.65 125.988C139.12 127.785 135.43 130.529 134.485 130.529C134.035 130.529 133.9 128.258 133.9 118.891V107.301L132.685 106.071C131.965 105.408 126.88 102.097 121.345 98.7852C115.765 95.4264 111.04 92.4932 110.86 92.304C110.5 91.9255 116.89 87.5732 117.88 87.5259C118.06 87.4785 120.4 88.8032 123.055 90.4117ZM110.95 97.5552L115.675 100.536V106.591V112.647L111.175 115.438C108.7 116.952 106.36 118.182 106 118.182C105.64 118.182 103.3 116.952 100.825 115.438L96.325 112.647L96.19 106.591L96.1 100.488L100.915 97.5552C103.615 95.9467 105.865 94.6221 106 94.6221C106.135 94.6221 108.34 95.9467 110.95 97.5552ZM124.36 105.692L127.645 107.585L127.51 121.541L127.375 135.497L125.845 138.477C124 142.025 121.21 144.864 117.79 146.519C115.54 147.655 114.64 147.797 110.725 147.797C106.495 147.797 106 147.702 103.165 146.236C101.455 145.337 100.15 144.438 100.24 144.154C100.33 143.917 104.425 141.268 109.375 138.24C114.325 135.26 118.735 132.469 119.185 132.09C119.86 131.381 119.95 130.056 119.95 117.425C119.95 106.497 120.085 103.516 120.535 103.658C120.805 103.753 122.56 104.651 124.36 105.692ZM115.9 122.439V127.076L107.485 132.232C93.94 140.464 94.48 140.227 88.9 140.227C84.715 140.227 83.905 140.085 81.61 138.95C76.03 136.206 72.34 130.482 71.935 123.811C71.755 121.304 71.845 120.121 72.16 120.121C72.43 120.121 76.885 122.676 82.06 125.798C87.235 128.921 91.78 131.475 92.23 131.475C92.905 131.475 113.695 119.222 114.775 118.182C115.72 117.236 115.9 117.945 115.9 122.439Z" fill="#DB4EDE"/>
</g>
<defs>
<clipPath id="clip0_43_292">
<rect width="90" height="96.036" fill="white" transform="translate(61 58.6211)"/>
</clipPath>
</defs>
</svg>
