<svg width="252" height="250" viewBox="0 0 252 250" fill="none" xmlns="http://www.w3.org/2000/svg">
<path d="M187.663 200.375H64.2029L73.95 190.768H177.915L187.663 200.375Z" fill="white" stroke="#263238" stroke-linecap="round" stroke-linejoin="round"/>
<path d="M173.945 194.475C173.945 196.437 151.588 198.052 123.992 198.052C96.3967 198.052 74.0397 196.45 74.0397 194.475C74.0397 192.499 96.3967 190.891 123.992 190.891C151.588 190.891 173.945 192.493 173.945 194.475Z" fill="#DB4EDE"/>
<path opacity="0.5" d="M173.945 194.475C173.945 196.437 151.588 198.052 123.992 198.052C96.3967 198.052 74.0397 196.45 74.0397 194.475C74.0397 192.499 96.3967 190.891 123.992 190.891C151.588 190.891 173.945 192.493 173.945 194.475Z" fill="white"/>
<path d="M187.663 200.375H64.2029V209.276H187.663V200.375Z" fill="#263238" stroke="#263238" stroke-linecap="round" stroke-linejoin="round"/>
<path d="M196.398 218.878H55.4676L64.2029 209.277H187.663L196.398 218.878Z" fill="white" stroke="#263238" stroke-linecap="round" stroke-linejoin="round"/>
<path d="M196.372 218.877H55.4932V228.242H196.372V218.877Z" fill="#263238" stroke="#263238" stroke-linecap="round" stroke-linejoin="round"/>
<path d="M124.569 105.421V45.5606H146.874V20.375" stroke="#263238" stroke-miterlimit="10"/>
<path d="M133.285 45.2794V20.375" stroke="#263238" stroke-miterlimit="10"/>
<path d="M126.234 114.962H228.931V100.051H248.56" stroke="#263238" stroke-miterlimit="10"/>
<path d="M121.2 114.447H23.5427V98.5156H2.40253" stroke="#263238" stroke-miterlimit="10"/>
<path d="M104.588 4.43555V27.0575H92.0034V41.4455H107.61V89.7697" stroke="#263238" stroke-miterlimit="10"/>
<path d="M173.554 71.2621V38.876H182.11V24.998H189.161" stroke="#263238" stroke-miterlimit="10"/>
<path d="M69.8577 68.1821V43.5066L62.8067 36.306V18.3145" stroke="#263238" stroke-miterlimit="10"/>
<path d="M192.684 82.5747H210.301V70.7503H221.88V64.0664H231.948" stroke="#263238" stroke-miterlimit="10"/>
<path d="M52.2335 86.6886H33.6101V71.7773H7.43622" stroke="#263238" stroke-miterlimit="10"/>
<path d="M69.3518 167.393V180.76H60.7958V195.672H36.1269" stroke="#263238" stroke-miterlimit="10"/>
<path d="M163.487 169.453V183.331H183.116V177.68H188.655V189.498H205.774" stroke="#263238" stroke-miterlimit="10"/>
<path d="M148.309 20.3738C148.308 20.6633 148.222 20.9459 148.064 21.186C147.906 21.426 147.681 21.6127 147.419 21.7226C147.157 21.8325 146.869 21.8606 146.591 21.8033C146.313 21.7461 146.058 21.606 145.858 21.4009C145.658 21.1957 145.522 20.9347 145.467 20.6507C145.412 20.3667 145.441 20.0725 145.55 19.8052C145.658 19.5379 145.842 19.3095 146.078 19.1488C146.314 18.9881 146.591 18.9023 146.874 18.9023C147.063 18.9023 147.25 18.9405 147.425 19.0145C147.599 19.0885 147.758 19.197 147.891 19.3337C148.024 19.4705 148.13 19.6327 148.202 19.8112C148.273 19.9897 148.31 20.1809 148.309 20.3738Z" fill="#263238" stroke="#263238" stroke-linecap="round" stroke-linejoin="round"/>
<path d="M134.771 20.3738C134.769 20.6633 134.684 20.9459 134.526 21.186C134.367 21.426 134.143 21.6127 133.881 21.7226C133.618 21.8325 133.33 21.8606 133.052 21.8033C132.774 21.7461 132.519 21.606 132.319 21.4009C132.119 21.1957 131.983 20.9347 131.929 20.6507C131.874 20.3667 131.903 20.0725 132.011 19.8052C132.12 19.5379 132.304 19.3095 132.54 19.1488C132.775 18.9881 133.053 18.9023 133.336 18.9023C133.525 18.9023 133.712 18.9405 133.886 19.0145C134.061 19.0885 134.219 19.197 134.353 19.3337C134.486 19.4705 134.591 19.6327 134.663 19.8112C134.735 19.9897 134.771 20.1809 134.771 20.3738Z" fill="#263238" stroke="#263238" stroke-linecap="round" stroke-linejoin="round"/>
<path d="M106.035 4.01058C106.035 4.30189 105.95 4.58665 105.792 4.82878C105.633 5.07091 105.408 5.25951 105.144 5.37069C104.88 5.48187 104.59 5.51063 104.311 5.45331C104.031 5.396 103.774 5.25521 103.573 5.04876C103.372 4.84231 103.235 4.5795 103.18 4.29363C103.125 4.00775 103.155 3.71168 103.265 3.44291C103.375 3.17415 103.56 2.94479 103.798 2.78389C104.036 2.62298 104.315 2.53778 104.6 2.53908C104.789 2.53908 104.976 2.57718 105.151 2.65121C105.325 2.72524 105.484 2.83374 105.617 2.97047C105.75 3.10719 105.856 3.26946 105.928 3.44795C105.999 3.62645 106.036 3.81765 106.035 4.01058Z" fill="#263238" stroke="#263238" stroke-linecap="round" stroke-linejoin="round"/>
<path d="M64.2541 17.575C64.2528 17.8645 64.1676 18.1471 64.0092 18.3871C63.8508 18.6272 63.6263 18.8139 63.3641 18.9238C63.1019 19.0337 62.8136 19.0618 62.5358 19.0045C62.2579 18.9472 62.0029 18.8072 61.803 18.6021C61.603 18.3969 61.467 18.1359 61.4121 17.8519C61.3573 17.5679 61.3861 17.2737 61.4948 17.0064C61.6036 16.7391 61.7875 16.5106 62.0232 16.35C62.259 16.1893 62.5361 16.1035 62.8196 16.1035C63.0085 16.1035 63.1956 16.1416 63.37 16.2157C63.5445 16.2897 63.7029 16.3982 63.8362 16.5349C63.9695 16.6716 64.075 16.8339 64.1467 17.0124C64.2185 17.1909 64.2549 17.3821 64.2541 17.575Z" fill="#263238" stroke="#263238" stroke-linecap="round" stroke-linejoin="round"/>
<path d="M8.87073 71.7775C8.87199 72.0691 8.7884 72.3545 8.63056 72.5974C8.47271 72.8404 8.24774 73.0301 7.98418 73.1422C7.72062 73.2544 7.43037 73.2841 7.15026 73.2276C6.87015 73.171 6.61281 73.0307 6.4109 72.8245C6.209 72.6183 6.07163 72.3555 6.01624 72.0695C5.96084 71.7834 5.98992 71.487 6.09977 71.2179C6.20963 70.9487 6.39531 70.719 6.63325 70.5578C6.87119 70.3966 7.15066 70.3112 7.43619 70.3125C7.81666 70.3125 8.18153 70.4669 8.45056 70.7416C8.71959 71.0163 8.87073 71.3889 8.87073 71.7775Z" fill="#263238" stroke="#263238" stroke-linecap="round" stroke-linejoin="round"/>
<path d="M3.88188 98.4676C3.88188 98.7586 3.79737 99.0431 3.63904 99.2851C3.48071 99.5271 3.25566 99.7157 2.99237 99.8271C2.72907 99.9385 2.43934 99.9676 2.15983 99.9108C1.88031 99.854 1.62356 99.7139 1.42204 99.5081C1.22052 99.3023 1.08329 99.0401 1.02769 98.7547C0.972089 98.4692 1.00062 98.1734 1.10969 97.9045C1.21875 97.6356 1.40344 97.4058 1.6404 97.2441C1.87736 97.0824 2.15595 96.9961 2.44094 96.9961C2.8231 96.9961 3.18961 97.1511 3.45984 97.4271C3.73007 97.703 3.88188 98.0773 3.88188 98.4676Z" fill="#263238" stroke="#263238" stroke-linecap="round" stroke-linejoin="round"/>
<path d="M37.6895 195.391C37.6895 195.683 37.6049 195.968 37.4463 196.21C37.2876 196.452 37.0622 196.64 36.7985 196.752C36.5349 196.863 36.2448 196.891 35.9651 196.834C35.6854 196.777 35.4287 196.636 35.2274 196.43C35.0262 196.223 34.8894 195.96 34.8346 195.674C34.7797 195.389 34.8092 195.093 34.9192 194.824C35.0292 194.555 35.2149 194.326 35.4527 194.165C35.6905 194.004 35.9697 193.919 36.255 193.92C36.4439 193.92 36.631 193.958 36.8055 194.032C36.9799 194.106 37.1384 194.215 37.2716 194.351C37.4049 194.488 37.5105 194.65 37.5822 194.829C37.6539 195.007 37.6904 195.199 37.6895 195.391Z" fill="#263238" stroke="#263238" stroke-linecap="round" stroke-linejoin="round"/>
<path d="M207.938 189.211C207.94 189.502 207.856 189.788 207.699 190.03C207.541 190.273 207.316 190.463 207.053 190.575C206.79 190.688 206.5 190.718 206.22 190.662C205.94 190.606 205.683 190.466 205.481 190.26C205.279 190.055 205.141 189.793 205.085 189.507C205.028 189.221 205.057 188.925 205.165 188.656C205.274 188.387 205.459 188.157 205.696 187.995C205.933 187.833 206.212 187.746 206.497 187.746C206.686 187.745 206.873 187.783 207.048 187.856C207.223 187.929 207.382 188.037 207.516 188.173C207.65 188.309 207.756 188.471 207.828 188.649C207.901 188.827 207.938 189.018 207.938 189.211Z" fill="#263238" stroke="#263238" stroke-linecap="round" stroke-linejoin="round"/>
<path d="M250.725 99.7618C250.725 100.052 250.64 100.335 250.483 100.576C250.325 100.817 250.101 101.004 249.839 101.115C249.577 101.226 249.288 101.255 249.01 101.199C248.732 101.142 248.476 101.003 248.276 100.798C248.075 100.593 247.938 100.332 247.883 100.048C247.828 99.7635 247.856 99.4689 247.965 99.2012C248.073 98.9335 248.257 98.7047 248.493 98.5438C248.729 98.3828 249.006 98.2969 249.29 98.2969C249.671 98.2969 250.035 98.4512 250.304 98.726C250.573 99.0007 250.725 99.3733 250.725 99.7618Z" fill="#263238" stroke="#263238" stroke-linecap="round" stroke-linejoin="round"/>
<path d="M234.061 63.7521C234.061 64.0418 233.977 64.3251 233.819 64.566C233.662 64.8069 233.438 64.9946 233.175 65.1055C232.913 65.2164 232.625 65.2454 232.347 65.1889C232.068 65.1324 231.813 64.9928 231.612 64.788C231.411 64.5831 231.275 64.322 231.219 64.0379C231.164 63.7537 231.193 63.4591 231.301 63.1915C231.41 62.9238 231.594 62.695 231.829 62.534C232.065 62.373 232.343 62.2871 232.626 62.2871C233.007 62.2871 233.372 62.4415 233.641 62.7162C233.91 62.9909 234.061 63.3635 234.061 63.7521Z" fill="#263238" stroke="#263238" stroke-linecap="round" stroke-linejoin="round"/>
<path d="M191.524 24.9591C191.524 25.2488 191.44 25.5321 191.283 25.773C191.125 26.0139 190.901 26.2017 190.639 26.3126C190.377 26.4234 190.088 26.4524 189.81 26.3959C189.532 26.3394 189.276 26.1999 189.075 25.995C188.875 25.7901 188.738 25.5291 188.683 25.2449C188.628 24.9607 188.656 24.6662 188.764 24.3985C188.873 24.1308 189.057 23.902 189.293 23.741C189.529 23.5801 189.806 23.4941 190.09 23.4941C190.47 23.4941 190.835 23.6485 191.104 23.9232C191.373 24.1979 191.524 24.5706 191.524 24.9591Z" fill="#263238" stroke="#263238" stroke-linecap="round" stroke-linejoin="round"/>
<path d="M143.359 180.349V167.596H105.779V180.349C105.767 184.518 104.357 188.558 101.783 191.794L100.137 193.873H148.988L147.348 191.794C144.774 188.558 143.366 184.518 143.359 180.349Z" fill="white"/>
<mask id="mask0_43_471" style="mask-type:luminance" maskUnits="userSpaceOnUse" x="100" y="167" width="49" height="27">
<path d="M143.359 180.351V167.598H105.779V180.351C105.767 184.52 104.357 188.56 101.783 191.796L100.137 193.875H148.988L147.348 191.796C144.774 188.56 143.366 184.52 143.359 180.351Z" fill="white"/>
</mask>
<g mask="url(#mask0_43_471)">
<path d="M103.473 189.286H145.664C144.154 186.561 143.36 183.484 143.359 180.353V167.6H105.779V180.353C105.777 183.484 104.983 186.561 103.473 189.286Z" fill="#DB4EDE"/>
<path opacity="0.3" d="M103.473 189.286H145.664C144.154 186.561 143.36 183.484 143.359 180.353V167.6H105.779V180.353C105.777 183.484 104.983 186.561 103.473 189.286Z" fill="white"/>
<path d="M103.473 175.839H145.664C144.154 173.114 143.36 170.036 143.359 166.905V154.152H105.779V166.905C105.777 170.036 104.983 173.114 103.473 175.839Z" fill="#263238"/>
</g>
<path d="M143.359 180.349V167.596H105.779V180.349C105.767 184.518 104.357 188.558 101.783 191.794L100.137 193.873H148.988L147.348 191.794C144.774 188.558 143.366 184.518 143.359 180.349Z" stroke="#263238" stroke-linecap="round" stroke-linejoin="round"/>
<path d="M194.65 58.3711H54.4877C51.4884 58.3711 49.057 60.8541 49.057 63.917V166.066C49.057 169.129 51.4884 171.612 54.4877 171.612H194.65C197.649 171.612 200.08 169.129 200.08 166.066V63.917C200.08 60.8541 197.649 58.3711 194.65 58.3711Z" fill="#263238" stroke="#263238" stroke-linecap="round" stroke-linejoin="round"/>
<path d="M49.057 154.014H200.08V166.067C200.08 167.538 199.508 168.948 198.49 169.988C197.471 171.029 196.09 171.613 194.65 171.613H54.4877C53.0474 171.613 51.6661 171.029 50.6476 169.988C49.6291 168.948 49.057 167.538 49.057 166.067V154.014Z" fill="white" stroke="#263238" stroke-linecap="round" stroke-linejoin="round"/>
<path d="M192.479 65.4219H56.6523V145.426H192.479V65.4219Z" fill="white" stroke="#263238" stroke-linecap="round" stroke-linejoin="round"/>
<path d="M127.354 165.634C127.366 165.069 127.212 164.513 126.913 164.038C126.614 163.562 126.183 163.189 125.675 162.964C125.167 162.74 124.606 162.675 124.061 162.778C123.517 162.881 123.015 163.147 122.62 163.543C122.225 163.938 121.954 164.445 121.841 164.998C121.729 165.552 121.781 166.127 121.99 166.65C122.199 167.173 122.556 167.621 123.015 167.936C123.474 168.252 124.015 168.42 124.569 168.42C125.3 168.427 126.003 168.138 126.526 167.616C127.048 167.093 127.346 166.381 127.354 165.634Z" fill="#263238" stroke="#263238" stroke-linecap="round" stroke-linejoin="round"/>
<path d="M149.001 193.893H100.143V196.169H149.001V193.893Z" fill="white" stroke="#263238" stroke-linecap="round" stroke-linejoin="round"/>
<path d="M124.774 61.2695C117.947 67.8095 100.438 74.3496 80.066 88.2733C80.066 88.2733 81.3468 135.361 124.774 161.07V61.2695Z" fill="#DB4EDE" stroke="#263238" stroke-linecap="round" stroke-linejoin="round"/>
<path d="M124.774 61.2695C131.607 67.8095 149.109 74.3496 169.488 88.2733C169.488 88.2733 168.207 135.361 124.774 161.07V61.2695Z" fill="#263238" stroke="#263238" stroke-linecap="round" stroke-linejoin="round"/>
<path d="M124.774 65.2773C116.512 71.1241 102.237 76.6897 83.345 89.5997C83.345 89.5997 84.5297 133.222 124.774 157.066C165.024 133.222 166.209 89.5997 166.209 89.5997C147.316 76.6897 133.086 71.1241 124.774 65.2773Z" fill="#263238" stroke="#263238" stroke-linecap="round" stroke-linejoin="round"/>
<path d="M166.209 89.5997C147.316 76.6962 133.086 71.1241 124.774 65.2773V157.066C165.024 133.222 166.209 89.5997 166.209 89.5997Z" fill="#DB4EDE" stroke="#263238" stroke-linecap="round" stroke-linejoin="round"/>
<path d="M200.548 112.691H48.5895V122.737H200.548V112.691Z" fill="#263238" stroke="#263238" stroke-linecap="round" stroke-linejoin="round"/>
<path d="M51.5802 114.29C51.584 114.496 51.5276 114.699 51.418 114.873C51.3085 115.046 51.1508 115.183 50.9651 115.264C50.7794 115.346 50.5741 115.37 50.3753 115.332C50.1766 115.294 49.9933 115.196 49.849 115.052C49.7047 114.907 49.6058 114.722 49.5649 114.52C49.524 114.317 49.543 114.107 49.6195 113.916C49.696 113.725 49.8264 113.561 49.9943 113.446C50.1621 113.331 50.3598 113.27 50.562 113.27C50.6945 113.268 50.8261 113.293 50.9492 113.343C51.0722 113.394 51.1843 113.469 51.2789 113.563C51.3736 113.658 51.4489 113.771 51.5006 113.896C51.5523 114.021 51.5794 114.154 51.5802 114.29Z" fill="white"/>
<path d="M49.9792 114.852C50.0907 114.972 50.2346 115.055 50.3925 115.09C50.5504 115.126 50.7152 115.113 50.8657 115.053C51.0163 114.992 51.1458 114.887 51.2377 114.751C51.3296 114.615 51.3797 114.455 51.3817 114.29C51.3795 114.093 51.3066 113.905 51.1768 113.76C50.7537 114.096 50.3535 114.46 49.9792 114.852Z" fill="#263238"/>
<path d="M55.5764 114.29C55.5815 114.498 55.5258 114.703 55.4163 114.878C55.3069 115.054 55.1487 115.192 54.962 115.275C54.7752 115.358 54.5684 115.383 54.368 115.345C54.1676 115.308 53.9826 115.21 53.8368 115.065C53.6909 114.92 53.5907 114.734 53.5491 114.53C53.5074 114.326 53.5261 114.115 53.6029 113.922C53.6796 113.729 53.8109 113.564 53.9799 113.448C54.1489 113.332 54.348 113.27 54.5518 113.27C54.6846 113.268 54.8166 113.293 54.94 113.343C55.0634 113.394 55.1759 113.468 55.271 113.563C55.3662 113.658 55.4421 113.771 55.4945 113.895C55.5469 114.02 55.5748 114.154 55.5764 114.29Z" fill="white"/>
<path d="M53.969 114.852C54.0805 114.972 54.2244 115.055 54.3823 115.09C54.5402 115.126 54.705 115.113 54.8555 115.053C55.0061 114.992 55.1356 114.887 55.2275 114.751C55.3194 114.615 55.3695 114.455 55.3715 114.29C55.3693 114.093 55.2964 113.905 55.1666 113.76C54.7449 114.097 54.3448 114.462 53.969 114.852Z" fill="#263238"/>
<path d="M59.5662 114.288C59.5459 114.55 59.4294 114.795 59.2401 114.974C59.0508 115.153 58.8025 115.252 58.5448 115.252C58.287 115.252 58.0387 115.153 57.8494 114.974C57.6601 114.795 57.5437 114.55 57.5233 114.288C57.5437 114.026 57.6601 113.781 57.8494 113.602C58.0387 113.423 58.287 113.324 58.5448 113.324C58.8025 113.324 59.0508 113.423 59.2401 113.602C59.4294 113.781 59.5459 114.026 59.5662 114.288Z" fill="white"/>
<path d="M57.9588 114.852C58.0352 114.933 58.1268 114.997 58.228 115.041C58.3292 115.084 58.438 115.107 58.548 115.107C58.6539 115.108 58.759 115.087 58.8573 115.047C58.9555 115.006 59.0449 114.946 59.1204 114.87C59.196 114.794 59.2561 114.704 59.2974 114.604C59.3388 114.505 59.3605 114.398 59.3613 114.29C59.3616 114.093 59.2883 113.903 59.1564 113.76C58.7347 114.097 58.3346 114.462 57.9588 114.852Z" fill="#263238"/>
<path d="M63.556 114.29C63.5598 114.496 63.5034 114.699 63.3938 114.873C63.2843 115.046 63.1266 115.183 62.9409 115.264C62.7552 115.346 62.5499 115.37 62.3512 115.332C62.1524 115.294 61.9691 115.196 61.8248 115.052C61.6805 114.907 61.5816 114.722 61.5407 114.52C61.4998 114.317 61.5188 114.107 61.5953 113.916C61.6718 113.725 61.8023 113.561 61.9701 113.446C62.1379 113.331 62.3356 113.27 62.5378 113.27C62.6703 113.268 62.8019 113.293 62.925 113.343C63.048 113.394 63.1601 113.469 63.2548 113.563C63.3494 113.658 63.4247 113.771 63.4764 113.896C63.5282 114.021 63.5552 114.154 63.556 114.29Z" fill="white"/>
<path d="M61.9486 114.852C62.061 114.971 62.2052 115.053 62.3632 115.088C62.5212 115.123 62.6858 115.11 62.8364 115.05C62.9871 114.99 63.1169 114.885 63.2096 114.75C63.3023 114.615 63.3538 114.455 63.3575 114.29C63.3553 114.093 63.2824 113.905 63.1526 113.76C62.7275 114.096 62.3252 114.46 61.9486 114.852Z" fill="#263238"/>
<path d="M67.5458 114.29C67.5497 114.496 67.4932 114.699 67.3837 114.873C67.2741 115.046 67.1164 115.183 66.9307 115.264C66.7451 115.346 66.5397 115.37 66.341 115.332C66.1422 115.294 65.959 115.196 65.8146 115.052C65.6703 114.907 65.5714 114.722 65.5305 114.52C65.4896 114.317 65.5087 114.107 65.5851 113.916C65.6616 113.725 65.7921 113.561 65.9599 113.446C66.1278 113.331 66.3254 113.27 66.5276 113.27C66.6602 113.268 66.7918 113.293 66.9148 113.343C67.0379 113.394 67.1499 113.469 67.2446 113.563C67.3392 113.658 67.4146 113.771 67.4663 113.896C67.518 114.021 67.545 114.154 67.5458 114.29Z" fill="white"/>
<path d="M65.9192 114.852C65.9959 114.932 66.0874 114.996 66.1886 115.04C66.2898 115.084 66.3985 115.107 66.5084 115.107C66.6149 115.109 66.7207 115.089 66.8196 115.049C66.9186 115.008 67.0088 114.949 67.085 114.873C67.1612 114.797 67.2219 114.706 67.2636 114.606C67.3054 114.506 67.3273 114.398 67.3281 114.29C67.3259 114.093 67.253 113.905 67.1232 113.76C66.6995 114.097 66.2973 114.462 65.9192 114.852Z" fill="#263238"/>
<path d="M71.5356 114.29C71.5395 114.496 71.483 114.699 71.3735 114.873C71.2639 115.046 71.1062 115.183 70.9205 115.264C70.7349 115.346 70.5295 115.37 70.3308 115.332C70.132 115.294 69.9488 115.196 69.8044 115.052C69.6601 114.907 69.5612 114.722 69.5203 114.52C69.4794 114.317 69.4985 114.107 69.5749 113.916C69.6514 113.725 69.7819 113.561 69.9497 113.446C70.1176 113.331 70.3152 113.27 70.5174 113.27C70.65 113.268 70.7816 113.293 70.9046 113.343C71.0277 113.394 71.1397 113.469 71.2344 113.563C71.329 113.658 71.4044 113.771 71.4561 113.896C71.5078 114.021 71.5348 114.154 71.5356 114.29Z" fill="white"/>
<path d="M69.9346 114.852C70.0461 114.972 70.19 115.055 70.3479 115.09C70.5058 115.126 70.6706 115.113 70.8211 115.053C70.9717 114.992 71.1012 114.887 71.1931 114.751C71.285 114.615 71.3352 114.455 71.3371 114.29C71.335 114.093 71.262 113.905 71.1322 113.76C70.7091 114.096 70.309 114.46 69.9346 114.852Z" fill="#263238"/>
<path d="M75.5255 114.29C75.5306 114.498 75.4748 114.703 75.3654 114.878C75.2559 115.054 75.0977 115.192 74.911 115.275C74.7243 115.358 74.5175 115.383 74.3171 115.345C74.1166 115.308 73.9317 115.21 73.7858 115.065C73.6399 114.92 73.5397 114.734 73.4981 114.53C73.4564 114.326 73.4752 114.115 73.5519 113.922C73.6287 113.729 73.7599 113.564 73.9289 113.448C74.098 113.332 74.297 113.27 74.5008 113.27C74.6337 113.268 74.7656 113.293 74.889 113.343C75.0124 113.394 75.1249 113.468 75.2201 113.563C75.3152 113.658 75.3912 113.771 75.4436 113.895C75.496 114.02 75.5238 114.154 75.5255 114.29Z" fill="white"/>
<path d="M73.9244 114.852C74.0359 114.972 74.1798 115.055 74.3377 115.09C74.4956 115.126 74.6604 115.113 74.8109 115.053C74.9615 114.992 75.091 114.887 75.1829 114.751C75.2748 114.615 75.325 114.455 75.3269 114.29C75.3248 114.093 75.2518 113.905 75.122 113.76C74.7003 114.097 74.3003 114.462 73.9244 114.852Z" fill="#263238"/>
<path d="M79.5217 114.29C79.5255 114.496 79.469 114.699 79.3595 114.873C79.2499 115.046 79.0923 115.183 78.9066 115.264C78.7209 115.346 78.5156 115.37 78.3168 115.332C78.118 115.294 77.9348 115.196 77.7905 115.052C77.6461 114.907 77.5472 114.722 77.5063 114.52C77.4655 114.317 77.4845 114.107 77.5609 113.916C77.6374 113.725 77.7679 113.561 77.9357 113.446C78.1036 113.331 78.3012 113.27 78.5034 113.27C78.636 113.268 78.7676 113.293 78.8906 113.343C79.0137 113.394 79.1258 113.469 79.2204 113.563C79.315 113.658 79.3904 113.771 79.4421 113.896C79.4938 114.021 79.5208 114.154 79.5217 114.29Z" fill="white"/>
<path d="M77.9142 114.852C77.9907 114.933 78.0822 114.997 78.1834 115.041C78.2847 115.084 78.3935 115.107 78.5034 115.107C78.6094 115.108 78.7145 115.087 78.8127 115.047C78.9109 115.006 79.0003 114.946 79.0759 114.87C79.1514 114.794 79.2115 114.704 79.2529 114.604C79.2942 114.505 79.3159 114.398 79.3167 114.29C79.3171 114.093 79.2438 113.903 79.1118 113.76C78.6901 114.097 78.2901 114.462 77.9142 114.852Z" fill="#263238"/>
<path d="M83.5115 114.29C83.5153 114.496 83.4588 114.699 83.3493 114.873C83.2397 115.046 83.0821 115.183 82.8964 115.264C82.7107 115.346 82.5054 115.37 82.3066 115.332C82.1078 115.294 81.9246 115.196 81.7802 115.052C81.6359 114.907 81.537 114.722 81.4961 114.52C81.4553 114.317 81.4743 114.107 81.5507 113.916C81.6272 113.725 81.7577 113.561 81.9255 113.446C82.0934 113.331 82.291 113.27 82.4932 113.27C82.6258 113.268 82.7574 113.293 82.8804 113.343C83.0035 113.394 83.1155 113.469 83.2102 113.563C83.3048 113.658 83.3802 113.771 83.4319 113.896C83.4836 114.021 83.5106 114.154 83.5115 114.29Z" fill="white"/>
<path d="M81.9296 114.852C82.042 114.971 82.1863 115.053 82.3442 115.088C82.5022 115.123 82.6669 115.11 82.8175 115.05C82.9681 114.99 83.0979 114.885 83.1906 114.75C83.2833 114.615 83.3348 114.455 83.3385 114.29C83.3364 114.093 83.2634 113.905 83.1336 113.76C82.7099 114.097 82.3077 114.462 81.9296 114.852Z" fill="#263238"/>
<path d="M87.5013 114.29C87.5051 114.496 87.4486 114.699 87.3391 114.873C87.2296 115.046 87.0719 115.183 86.8862 115.264C86.7005 115.346 86.4952 115.37 86.2964 115.332C86.0976 115.294 85.9144 115.196 85.7701 115.052C85.6257 114.907 85.5268 114.722 85.486 114.52C85.4451 114.317 85.4641 114.107 85.5406 113.916C85.617 113.725 85.7475 113.561 85.9154 113.446C86.0832 113.331 86.2808 113.27 86.483 113.27C86.6156 113.268 86.7472 113.293 86.8702 113.343C86.9933 113.394 87.1054 113.469 87.2 113.563C87.2947 113.658 87.37 113.771 87.4217 113.896C87.4734 114.021 87.5004 114.154 87.5013 114.29Z" fill="white"/>
<path d="M85.8938 114.852C85.9705 114.932 86.0621 114.996 86.1633 115.04C86.2644 115.084 86.3731 115.107 86.483 115.107C86.5895 115.109 86.6953 115.089 86.7943 115.049C86.8932 115.008 86.9834 114.949 87.0596 114.873C87.1358 114.797 87.1965 114.706 87.2383 114.606C87.28 114.506 87.3019 114.398 87.3027 114.29C87.3006 114.093 87.2276 113.905 87.0978 113.76C86.6741 114.097 86.2719 114.462 85.8938 114.852Z" fill="#263238"/>
<path d="M91.4911 114.29C91.4949 114.496 91.4384 114.699 91.3289 114.873C91.2194 115.046 91.0617 115.183 90.876 115.264C90.6903 115.346 90.485 115.37 90.2862 115.332C90.0874 115.294 89.9042 115.196 89.7599 115.052C89.6155 114.907 89.5166 114.722 89.4758 114.52C89.4349 114.317 89.4539 114.107 89.5304 113.916C89.6068 113.725 89.7373 113.561 89.9052 113.446C90.073 113.331 90.2706 113.27 90.4728 113.27C90.6054 113.268 90.737 113.293 90.86 113.343C90.9831 113.394 91.0952 113.469 91.1898 113.563C91.2845 113.658 91.3598 113.771 91.4115 113.896C91.4632 114.021 91.4902 114.154 91.4911 114.29Z" fill="white"/>
<path d="M89.89 114.852C90.0015 114.972 90.1454 115.055 90.3033 115.09C90.4613 115.126 90.626 115.113 90.7766 115.053C90.9271 114.992 91.0566 114.887 91.1485 114.751C91.2404 114.615 91.2906 114.455 91.2925 114.29C91.2904 114.093 91.2174 113.905 91.0876 113.76C90.6659 114.097 90.2659 114.462 89.89 114.852Z" fill="#263238"/>
<path d="M95.4873 114.29C95.4924 114.498 95.4365 114.703 95.3268 114.879C95.217 115.054 95.0585 115.193 94.8713 115.276C94.6842 115.359 94.4771 115.383 94.2765 115.345C94.0759 115.307 93.891 115.209 93.7453 115.063C93.5997 114.917 93.5 114.73 93.4591 114.526C93.4182 114.322 93.4378 114.11 93.5156 113.917C93.5933 113.725 93.7256 113.56 93.8954 113.445C94.0653 113.329 94.265 113.268 94.469 113.27C94.6016 113.268 94.7332 113.293 94.8563 113.343C94.9793 113.394 95.0914 113.469 95.186 113.563C95.2807 113.658 95.356 113.771 95.4077 113.896C95.4594 114.021 95.4865 114.154 95.4873 114.29Z" fill="white"/>
<path d="M93.8798 114.852C93.9913 114.972 94.1352 115.055 94.2931 115.09C94.451 115.126 94.6158 115.113 94.7664 115.053C94.9169 114.992 95.0464 114.887 95.1383 114.751C95.2302 114.615 95.2804 114.455 95.2824 114.29C95.2827 114.093 95.2094 113.903 95.0774 113.76C94.6557 114.097 94.2557 114.462 93.8798 114.852Z" fill="#263238"/>
<path d="M99.4771 114.29C99.4809 114.496 99.4244 114.699 99.3149 114.873C99.2054 115.046 99.0477 115.183 98.862 115.264C98.6763 115.346 98.471 115.37 98.2722 115.332C98.0734 115.294 97.8902 115.196 97.7459 115.052C97.6015 114.907 97.5026 114.722 97.4618 114.52C97.4209 114.317 97.4399 114.107 97.5164 113.916C97.5928 113.725 97.7233 113.561 97.8912 113.446C98.059 113.331 98.2566 113.27 98.4588 113.27C98.5914 113.268 98.723 113.293 98.846 113.343C98.9691 113.394 99.0812 113.469 99.1758 113.563C99.2705 113.658 99.3458 113.771 99.3975 113.896C99.4492 114.021 99.4762 114.154 99.4771 114.29Z" fill="white"/>
<path d="M97.8697 114.852C97.982 114.971 98.1263 115.053 98.2843 115.088C98.4423 115.123 98.6069 115.11 98.7575 115.05C98.9081 114.99 99.0379 114.885 99.1307 114.75C99.2234 114.615 99.2748 114.455 99.2786 114.29C99.2764 114.093 99.2035 113.905 99.0736 113.76C98.6486 114.096 98.2463 114.46 97.8697 114.852Z" fill="#263238"/>
<path d="M103.467 114.29C103.471 114.496 103.414 114.699 103.305 114.873C103.195 115.046 103.037 115.183 102.852 115.264C102.666 115.346 102.461 115.37 102.262 115.332C102.063 115.294 101.88 115.196 101.736 115.052C101.591 114.907 101.492 114.722 101.452 114.52C101.411 114.317 101.43 114.107 101.506 113.916C101.583 113.725 101.713 113.561 101.881 113.446C102.049 113.331 102.246 113.27 102.449 113.27C102.581 113.268 102.713 113.293 102.836 113.343C102.959 113.394 103.071 113.469 103.166 113.563C103.26 113.658 103.336 113.771 103.387 113.896C103.439 114.021 103.466 114.154 103.467 114.29Z" fill="white"/>
<path d="M101.859 114.852C101.936 114.932 102.028 114.996 102.129 115.04C102.23 115.084 102.339 115.107 102.449 115.107C102.555 115.109 102.661 115.089 102.76 115.049C102.859 115.008 102.949 114.949 103.025 114.873C103.101 114.797 103.162 114.706 103.204 114.606C103.246 114.506 103.268 114.398 103.268 114.29C103.266 114.093 103.193 113.905 103.063 113.76C102.64 114.097 102.238 114.462 101.859 114.852Z" fill="#263238"/>
<path d="M51.5802 120.77C51.5853 120.976 51.5299 121.18 51.4212 121.354C51.3124 121.529 51.1553 121.666 50.9697 121.749C50.7841 121.832 50.5787 121.856 50.3795 121.819C50.1803 121.782 49.9965 121.685 49.8515 121.54C49.7065 121.396 49.6069 121.211 49.5655 121.008C49.5241 120.806 49.5427 120.596 49.619 120.404C49.6953 120.213 49.8257 120.049 49.9937 119.933C50.1616 119.818 50.3595 119.756 50.562 119.756C50.694 119.754 50.8251 119.779 50.9477 119.829C51.0703 119.879 51.1821 119.953 51.2767 120.047C51.3712 120.142 51.4467 120.254 51.4988 120.378C51.5509 120.502 51.5785 120.635 51.5802 120.77Z" fill="white"/>
<path d="M49.9792 121.338C50.0542 121.419 50.1446 121.483 50.2448 121.527C50.345 121.571 50.4529 121.594 50.562 121.593C50.6688 121.594 50.7747 121.574 50.8737 121.533C50.9727 121.492 51.0628 121.431 51.1389 121.355C51.2151 121.278 51.2757 121.187 51.3173 121.087C51.359 120.986 51.3809 120.878 51.3817 120.769C51.378 120.575 51.3051 120.389 51.1768 120.246C50.7537 120.582 50.3535 120.947 49.9792 121.338Z" fill="#263238"/>
<path d="M55.5764 120.77C55.5828 120.978 55.5282 121.183 55.4195 121.36C55.3109 121.536 55.1532 121.675 54.9666 121.759C54.78 121.844 54.573 121.869 54.3722 121.832C54.1714 121.796 53.9858 121.699 53.8393 121.554C53.6928 121.409 53.592 121.223 53.5498 121.019C53.5076 120.815 53.5259 120.603 53.6024 120.41C53.6789 120.217 53.8102 120.051 53.9793 119.935C54.1484 119.818 54.3478 119.756 54.5518 119.756C54.819 119.752 55.0768 119.857 55.2688 120.047C55.4608 120.237 55.5714 120.497 55.5764 120.77Z" fill="white"/>
<path d="M53.969 121.338C54.044 121.419 54.1344 121.483 54.2346 121.527C54.3348 121.571 54.4427 121.594 54.5518 121.593C54.6586 121.594 54.7645 121.574 54.8635 121.533C54.9625 121.492 55.0526 121.431 55.1288 121.355C55.2049 121.278 55.2655 121.187 55.3071 121.087C55.3488 120.986 55.3707 120.878 55.3715 120.769C55.3678 120.575 55.2949 120.389 55.1666 120.246C54.7449 120.584 54.3448 120.948 53.969 121.338Z" fill="#263238"/>
<path d="M59.5662 120.77C59.5726 120.978 59.5178 121.184 59.4089 121.36C59.3 121.537 59.1419 121.676 58.9549 121.76C58.7679 121.844 58.5606 121.869 58.3596 121.832C58.1586 121.795 57.9731 121.697 57.8268 121.552C57.6805 121.406 57.5802 121.219 57.5387 121.015C57.4973 120.811 57.5165 120.598 57.594 120.405C57.6715 120.212 57.8038 120.047 57.9738 119.932C58.1437 119.816 58.3437 119.755 58.548 119.756C58.68 119.754 58.8111 119.779 58.9337 119.829C59.0564 119.879 59.1682 119.953 59.2627 120.047C59.3573 120.142 59.4327 120.254 59.4848 120.378C59.5369 120.502 59.5646 120.635 59.5662 120.77Z" fill="white"/>
<path d="M57.9588 121.338C58.0707 121.458 58.2151 121.541 58.3736 121.577C58.5321 121.613 58.6974 121.599 58.8483 121.538C58.9991 121.476 59.1285 121.371 59.2199 121.234C59.3114 121.097 59.3606 120.935 59.3613 120.769C59.3606 120.575 59.2874 120.388 59.1564 120.246C58.7347 120.584 58.3346 120.948 57.9588 121.338Z" fill="#263238"/>
<path d="M63.556 120.77C63.5611 120.976 63.5058 121.18 63.397 121.354C63.2883 121.529 63.1311 121.666 62.9455 121.749C62.76 121.832 62.5545 121.856 62.3553 121.819C62.1561 121.782 61.9723 121.685 61.8273 121.54C61.6823 121.396 61.5828 121.211 61.5414 121.008C61.5 120.806 61.5186 120.596 61.5948 120.404C61.6711 120.213 61.8015 120.049 61.9695 119.933C62.1375 119.818 62.3353 119.756 62.5378 119.756C62.6698 119.754 62.8009 119.779 62.9235 119.829C63.0462 119.879 63.158 119.953 63.2525 120.047C63.3471 120.142 63.4226 120.254 63.4746 120.378C63.5267 120.502 63.5544 120.635 63.556 120.77Z" fill="white"/>
<path d="M61.9486 121.338C62.0614 121.457 62.2062 121.54 62.3648 121.575C62.5233 121.61 62.6885 121.596 62.8393 121.535C62.9902 121.474 63.1199 121.369 63.2122 121.232C63.3044 121.096 63.355 120.935 63.3575 120.769C63.3538 120.575 63.2809 120.389 63.1526 120.246C62.7275 120.582 62.3252 120.947 61.9486 121.338Z" fill="#263238"/>
<path d="M67.5458 120.77C67.5509 120.976 67.4956 121.18 67.3868 121.354C67.2781 121.529 67.1209 121.666 66.9353 121.749C66.7498 121.832 66.5443 121.856 66.3451 121.819C66.1459 121.782 65.9621 121.685 65.8171 121.54C65.6721 121.396 65.5726 121.211 65.5312 121.008C65.4898 120.806 65.5084 120.596 65.5846 120.404C65.6609 120.213 65.7913 120.049 65.9593 119.933C66.1273 119.818 66.3251 119.756 66.5276 119.756C66.6596 119.754 66.7907 119.779 66.9133 119.829C67.036 119.879 67.1478 119.953 67.2423 120.047C67.3369 120.142 67.4124 120.254 67.4644 120.378C67.5165 120.502 67.5442 120.635 67.5458 120.77Z" fill="white"/>
<path d="M65.9192 121.338C65.9959 121.419 66.0874 121.483 66.1886 121.526C66.2898 121.57 66.3985 121.593 66.5084 121.593C66.6152 121.594 66.7211 121.574 66.8201 121.533C66.9191 121.492 67.0093 121.431 67.0854 121.355C67.1615 121.278 67.2221 121.187 67.2638 121.087C67.3054 120.986 67.3273 120.878 67.3281 120.769C67.3244 120.575 67.2515 120.389 67.1232 120.246C66.6995 120.584 66.2973 120.948 65.9192 121.338Z" fill="#263238"/>
<path d="M71.5356 120.77C71.5407 120.976 71.4854 121.18 71.3766 121.354C71.2679 121.529 71.1107 121.666 70.9251 121.749C70.7396 121.832 70.5341 121.856 70.3349 121.819C70.1357 121.782 69.9519 121.685 69.8069 121.54C69.6619 121.396 69.5624 121.211 69.521 121.008C69.4795 120.806 69.4982 120.596 69.5744 120.404C69.6507 120.213 69.7811 120.049 69.9491 119.933C70.1171 119.818 70.3149 119.756 70.5174 119.756C70.6494 119.754 70.7805 119.779 70.9031 119.829C71.0258 119.879 71.1376 119.953 71.2321 120.047C71.3267 120.142 71.4021 120.254 71.4542 120.378C71.5063 120.502 71.534 120.635 71.5356 120.77Z" fill="white"/>
<path d="M69.9346 121.338C70.0096 121.419 70.1 121.483 70.2002 121.527C70.3004 121.571 70.4083 121.594 70.5174 121.593C70.6242 121.594 70.7301 121.574 70.8291 121.533C70.9281 121.492 71.0183 121.431 71.0944 121.355C71.1705 121.278 71.2311 121.187 71.2728 121.087C71.3144 120.986 71.3363 120.878 71.3371 120.769C71.3334 120.575 71.2605 120.389 71.1322 120.246C70.7091 120.582 70.309 120.947 69.9346 121.338Z" fill="#263238"/>
<path d="M75.5255 120.77C75.5318 120.978 75.4772 121.183 75.3686 121.36C75.2599 121.536 75.1022 121.675 74.9156 121.759C74.729 121.844 74.5221 121.869 74.3212 121.832C74.1204 121.796 73.9349 121.699 73.7883 121.554C73.6418 121.409 73.541 121.223 73.4988 121.019C73.4566 120.815 73.4749 120.603 73.5514 120.41C73.628 120.217 73.7592 120.051 73.9283 119.935C74.0975 119.818 74.2968 119.756 74.5008 119.756C74.7681 119.752 75.0258 119.857 75.2178 120.047C75.4098 120.237 75.5204 120.497 75.5255 120.77Z" fill="white"/>
<path d="M73.9244 121.338C73.9994 121.419 74.0898 121.483 74.19 121.527C74.2902 121.571 74.3982 121.594 74.5072 121.593C74.614 121.594 74.7199 121.574 74.8189 121.533C74.9179 121.492 75.0081 121.431 75.0842 121.355C75.1603 121.278 75.2209 121.187 75.2626 121.087C75.3042 120.986 75.3261 120.878 75.3269 120.769C75.3232 120.575 75.2503 120.389 75.122 120.246C74.7003 120.584 74.3003 120.948 73.9244 121.338Z" fill="#263238"/>
<path d="M79.5217 120.77C79.5267 120.976 79.4714 121.18 79.3626 121.354C79.2539 121.529 79.0967 121.666 78.9111 121.749C78.7256 121.832 78.5201 121.856 78.3209 121.819C78.1217 121.782 77.9379 121.685 77.7929 121.54C77.6479 121.396 77.5484 121.211 77.507 121.008C77.4656 120.806 77.4842 120.596 77.5604 120.404C77.6367 120.213 77.7671 120.049 77.9351 119.933C78.1031 119.818 78.3009 119.756 78.5034 119.756C78.6354 119.754 78.7665 119.779 78.8891 119.829C79.0118 119.879 79.1236 119.953 79.2181 120.047C79.3127 120.142 79.3882 120.254 79.4402 120.378C79.4923 120.502 79.52 120.635 79.5217 120.77Z" fill="white"/>
<path d="M77.9142 121.338C78.0261 121.458 78.1706 121.541 78.3291 121.577C78.4876 121.613 78.6529 121.599 78.8037 121.538C78.9545 121.476 79.0839 121.371 79.1754 121.234C79.2668 121.097 79.316 120.935 79.3167 120.769C79.3161 120.575 79.2428 120.388 79.1118 120.246C78.6901 120.584 78.2901 120.948 77.9142 121.338Z" fill="#263238"/>
<path d="M83.5115 120.77C83.5166 120.976 83.4612 121.18 83.3524 121.354C83.2437 121.529 83.0865 121.666 82.9009 121.749C82.7154 121.832 82.5099 121.856 82.3107 121.819C82.1115 121.782 81.9277 121.685 81.7827 121.54C81.6377 121.396 81.5382 121.211 81.4968 121.008C81.4554 120.806 81.474 120.596 81.5502 120.404C81.6265 120.213 81.7569 120.049 81.9249 119.933C82.0929 119.818 82.2907 119.756 82.4932 119.756C82.6252 119.754 82.7563 119.779 82.879 119.829C83.0016 119.879 83.1134 119.953 83.2079 120.047C83.3025 120.142 83.378 120.254 83.43 120.378C83.4821 120.502 83.5098 120.635 83.5115 120.77Z" fill="white"/>
<path d="M81.9296 121.338C82.0424 121.457 82.1872 121.54 82.3458 121.575C82.5043 121.61 82.6695 121.596 82.8204 121.535C82.9712 121.474 83.101 121.369 83.1932 121.232C83.2855 121.096 83.336 120.935 83.3385 120.769C83.3348 120.575 83.262 120.389 83.1336 120.246C82.7099 120.584 82.3077 120.948 81.9296 121.338Z" fill="#263238"/>
<path d="M87.5013 120.77C87.5064 120.976 87.451 121.18 87.3423 121.354C87.2335 121.529 87.0763 121.666 86.8908 121.749C86.7052 121.832 86.4997 121.856 86.3005 121.819C86.1013 121.782 85.9175 121.685 85.7725 121.54C85.6276 121.396 85.528 121.211 85.4866 121.008C85.4452 120.806 85.4638 120.596 85.54 120.404C85.6163 120.213 85.7468 120.049 85.9147 119.933C86.0827 119.818 86.2805 119.756 86.483 119.756C86.615 119.754 86.7461 119.779 86.8688 119.829C86.9914 119.879 87.1032 119.953 87.1977 120.047C87.2923 120.142 87.3678 120.254 87.4199 120.378C87.4719 120.502 87.4996 120.635 87.5013 120.77Z" fill="white"/>
<path d="M85.8938 121.338C85.9705 121.419 86.0621 121.483 86.1633 121.526C86.2644 121.57 86.3731 121.593 86.483 121.593C86.5898 121.594 86.6957 121.574 86.7947 121.533C86.8938 121.492 86.9839 121.431 87.06 121.355C87.1361 121.278 87.1967 121.187 87.2384 121.087C87.28 120.986 87.3019 120.878 87.3027 120.769C87.299 120.575 87.2262 120.389 87.0978 120.246C86.6741 120.584 86.2719 120.948 85.8938 121.338Z" fill="#263238"/>
<path d="M91.4911 120.77C91.4962 120.976 91.4408 121.18 91.3321 121.354C91.2233 121.529 91.0661 121.666 90.8806 121.749C90.695 121.832 90.4895 121.856 90.2903 121.819C90.0911 121.782 89.9073 121.685 89.7623 121.54C89.6174 121.396 89.5178 121.211 89.4764 121.008C89.435 120.806 89.4536 120.596 89.5299 120.404C89.6061 120.213 89.7365 120.049 89.9045 119.933C90.0725 119.818 90.2703 119.756 90.4728 119.756C90.6048 119.754 90.7359 119.779 90.8586 119.829C90.9812 119.879 91.093 119.953 91.1875 120.047C91.2821 120.142 91.3576 120.254 91.4097 120.378C91.4617 120.502 91.4894 120.635 91.4911 120.77Z" fill="white"/>
<path d="M89.89 121.338C89.965 121.419 90.0554 121.483 90.1556 121.527C90.2559 121.571 90.3638 121.594 90.4728 121.593C90.5796 121.594 90.6856 121.574 90.7846 121.533C90.8836 121.492 90.9737 121.431 91.0498 121.355C91.1259 121.278 91.1865 121.187 91.2282 121.087C91.2698 120.986 91.2917 120.878 91.2925 120.769C91.2888 120.575 91.216 120.389 91.0876 120.246C90.6659 120.584 90.2659 120.948 89.89 121.338Z" fill="#263238"/>
<path d="M95.4873 120.77C95.4937 120.978 95.4389 121.184 95.3299 121.36C95.221 121.537 95.0629 121.676 94.876 121.76C94.689 121.844 94.4817 121.869 94.2807 121.832C94.0797 121.795 93.8941 121.697 93.7479 121.552C93.6016 121.406 93.5013 121.219 93.4598 121.015C93.4183 120.811 93.4376 120.598 93.5151 120.405C93.5926 120.212 93.7248 120.047 93.8948 119.932C94.0648 119.816 94.2647 119.755 94.469 119.756C94.6011 119.754 94.7321 119.779 94.8548 119.829C94.9774 119.879 95.0892 119.953 95.1838 120.047C95.2783 120.142 95.3538 120.254 95.4059 120.378C95.458 120.502 95.4856 120.635 95.4873 120.77Z" fill="white"/>
<path d="M93.8798 121.338C93.9917 121.458 94.1362 121.541 94.2947 121.577C94.4532 121.613 94.6185 121.599 94.7693 121.538C94.9201 121.476 95.0496 121.371 95.141 121.234C95.2324 121.097 95.2817 120.935 95.2824 120.769C95.2817 120.575 95.2084 120.388 95.0774 120.246C94.6557 120.584 94.2557 120.948 93.8798 121.338Z" fill="#263238"/>
<path d="M99.4771 120.77C99.4822 120.976 99.4268 121.18 99.3181 121.354C99.2093 121.529 99.0521 121.666 98.8666 121.749C98.681 121.832 98.4755 121.856 98.2763 121.819C98.0772 121.782 97.8933 121.685 97.7484 121.54C97.6034 121.396 97.5038 121.211 97.4624 121.008C97.421 120.806 97.4396 120.596 97.5159 120.404C97.5921 120.213 97.7226 120.049 97.8905 119.933C98.0585 119.818 98.2564 119.756 98.4588 119.756C98.5909 119.754 98.7219 119.779 98.8446 119.829C98.9672 119.879 99.079 119.953 99.1736 120.047C99.2681 120.142 99.3436 120.254 99.3957 120.378C99.4478 120.502 99.4754 120.635 99.4771 120.77Z" fill="white"/>
<path d="M97.8697 121.338C97.9824 121.457 98.1273 121.54 98.2858 121.575C98.4444 121.61 98.6095 121.596 98.7604 121.535C98.9113 121.474 99.041 121.369 99.1332 121.232C99.2255 121.096 99.2761 120.935 99.2786 120.769C99.2749 120.575 99.202 120.389 99.0736 120.246C98.6486 120.582 98.2463 120.947 97.8697 121.338Z" fill="#263238"/>
<path d="M103.467 120.77C103.472 120.976 103.417 121.18 103.308 121.354C103.199 121.529 103.042 121.666 102.856 121.749C102.671 121.832 102.465 121.856 102.266 121.819C102.067 121.782 101.883 121.685 101.738 121.54C101.593 121.396 101.494 121.211 101.452 121.008C101.411 120.806 101.429 120.596 101.506 120.404C101.582 120.213 101.712 120.049 101.88 119.933C102.048 119.818 102.246 119.756 102.449 119.756C102.581 119.754 102.712 119.779 102.834 119.829C102.957 119.879 103.069 119.953 103.163 120.047C103.258 120.142 103.333 120.254 103.385 120.378C103.438 120.502 103.465 120.635 103.467 120.77Z" fill="white"/>
<path d="M101.859 121.338C101.936 121.419 102.028 121.483 102.129 121.526C102.23 121.57 102.339 121.593 102.449 121.593C102.555 121.594 102.661 121.574 102.76 121.533C102.859 121.492 102.949 121.431 103.026 121.355C103.102 121.278 103.162 121.187 103.204 121.087C103.246 120.986 103.268 120.878 103.268 120.769C103.265 120.575 103.192 120.389 103.063 120.246C102.64 120.584 102.238 120.948 101.859 121.338Z" fill="#263238"/>
<path d="M147.688 114.29C147.692 114.496 147.635 114.699 147.526 114.873C147.416 115.046 147.258 115.183 147.073 115.264C146.887 115.346 146.682 115.37 146.483 115.332C146.284 115.294 146.101 115.196 145.957 115.052C145.812 114.907 145.713 114.722 145.672 114.52C145.632 114.317 145.651 114.107 145.727 113.916C145.803 113.725 145.934 113.561 146.102 113.446C146.27 113.331 146.467 113.27 146.669 113.27C146.802 113.268 146.934 113.293 147.057 113.343C147.18 113.394 147.292 113.469 147.386 113.563C147.481 113.658 147.556 113.771 147.608 113.896C147.66 114.021 147.687 114.154 147.688 114.29Z" fill="white"/>
<path d="M146.087 114.852C146.198 114.972 146.342 115.055 146.5 115.09C146.658 115.126 146.823 115.113 146.973 115.053C147.124 114.992 147.253 114.887 147.345 114.751C147.437 114.615 147.487 114.455 147.489 114.29C147.487 114.093 147.414 113.905 147.284 113.76C146.863 114.097 146.463 114.462 146.087 114.852Z" fill="#263238"/>
<path d="M151.684 114.29C151.689 114.498 151.633 114.703 151.523 114.879C151.414 115.054 151.255 115.193 151.068 115.276C150.881 115.359 150.674 115.383 150.473 115.345C150.273 115.307 150.088 115.209 149.942 115.063C149.796 114.917 149.697 114.73 149.656 114.526C149.615 114.322 149.635 114.11 149.712 113.917C149.79 113.725 149.922 113.56 150.092 113.445C150.262 113.329 150.462 113.268 150.666 113.27C150.798 113.268 150.93 113.293 151.053 113.343C151.176 113.394 151.288 113.469 151.383 113.563C151.477 113.658 151.553 113.771 151.604 113.896C151.656 114.021 151.683 114.154 151.684 114.29Z" fill="white"/>
<path d="M150.077 114.852C150.188 114.972 150.332 115.055 150.49 115.09C150.648 115.126 150.813 115.113 150.963 115.053C151.114 114.992 151.243 114.887 151.335 114.751C151.427 114.615 151.477 114.455 151.479 114.29C151.479 114.093 151.406 113.903 151.274 113.76C150.852 114.097 150.452 114.462 150.077 114.852Z" fill="#263238"/>
<path d="M155.674 114.29C155.678 114.496 155.621 114.699 155.512 114.873C155.402 115.046 155.244 115.183 155.059 115.264C154.873 115.346 154.668 115.37 154.469 115.332C154.27 115.294 154.087 115.196 153.943 115.052C153.798 114.907 153.699 114.722 153.658 114.52C153.618 114.317 153.637 114.107 153.713 113.916C153.79 113.725 153.92 113.561 154.088 113.446C154.256 113.331 154.453 113.27 154.655 113.27C154.788 113.268 154.92 113.293 155.043 113.343C155.166 113.394 155.278 113.469 155.372 113.563C155.467 113.658 155.542 113.771 155.594 113.896C155.646 114.021 155.673 114.154 155.674 114.29Z" fill="white"/>
<path d="M154.066 114.852C154.179 114.971 154.323 115.053 154.481 115.088C154.639 115.123 154.804 115.11 154.954 115.05C155.105 114.99 155.235 114.885 155.327 114.75C155.42 114.615 155.472 114.455 155.475 114.29C155.473 114.093 155.4 113.905 155.27 113.76C154.845 114.096 154.443 114.46 154.066 114.852Z" fill="#263238"/>
<path d="M159.664 114.29C159.667 114.496 159.611 114.699 159.501 114.873C159.392 115.046 159.234 115.183 159.048 115.264C158.863 115.346 158.657 115.37 158.459 115.332C158.26 115.294 158.077 115.196 157.932 115.052C157.788 114.907 157.689 114.722 157.648 114.52C157.607 114.317 157.626 114.107 157.703 113.916C157.779 113.725 157.91 113.561 158.078 113.446C158.245 113.331 158.443 113.27 158.645 113.27C158.778 113.268 158.909 113.293 159.033 113.343C159.156 113.394 159.268 113.469 159.362 113.563C159.457 113.658 159.532 113.771 159.584 113.896C159.636 114.021 159.663 114.154 159.664 114.29Z" fill="white"/>
<path d="M158.056 114.852C158.133 114.932 158.224 114.996 158.326 115.04C158.427 115.084 158.535 115.107 158.645 115.107C158.752 115.109 158.858 115.089 158.957 115.049C159.056 115.008 159.146 114.949 159.222 114.873C159.298 114.797 159.359 114.706 159.401 114.606C159.442 114.506 159.464 114.398 159.465 114.29C159.463 114.093 159.39 113.905 159.26 113.76C158.836 114.097 158.434 114.462 158.056 114.852Z" fill="#263238"/>
<path d="M163.653 114.29C163.657 114.496 163.601 114.699 163.491 114.873C163.382 115.046 163.224 115.183 163.038 115.264C162.853 115.346 162.647 115.37 162.448 115.332C162.25 115.294 162.066 115.196 161.922 115.052C161.778 114.907 161.679 114.722 161.638 114.52C161.597 114.317 161.616 114.107 161.693 113.916C161.769 113.725 161.9 113.561 162.067 113.446C162.235 113.331 162.433 113.27 162.635 113.27C162.768 113.268 162.899 113.293 163.022 113.343C163.145 113.394 163.257 113.469 163.352 113.563C163.447 113.658 163.522 113.771 163.574 113.896C163.625 114.021 163.653 114.154 163.653 114.29Z" fill="white"/>
<path d="M162.052 114.852C162.164 114.972 162.308 115.055 162.466 115.09C162.624 115.126 162.788 115.113 162.939 115.053C163.089 114.992 163.219 114.887 163.311 114.751C163.403 114.615 163.453 114.455 163.455 114.29C163.453 114.093 163.38 113.905 163.25 113.76C162.827 114.096 162.427 114.46 162.052 114.852Z" fill="#263238"/>
<path d="M167.65 114.29C167.655 114.498 167.599 114.703 167.489 114.878C167.38 115.054 167.222 115.192 167.035 115.275C166.848 115.358 166.642 115.383 166.441 115.345C166.241 115.308 166.056 115.21 165.91 115.065C165.764 114.92 165.664 114.734 165.622 114.53C165.581 114.326 165.599 114.115 165.676 113.922C165.753 113.729 165.884 113.564 166.053 113.448C166.222 113.332 166.421 113.27 166.625 113.27C166.758 113.268 166.89 113.293 167.013 113.343C167.137 113.394 167.249 113.468 167.344 113.563C167.439 113.658 167.515 113.771 167.568 113.895C167.62 114.02 167.648 114.154 167.65 114.29Z" fill="white"/>
<path d="M166.042 114.852C166.154 114.972 166.298 115.055 166.455 115.09C166.613 115.126 166.778 115.113 166.929 115.053C167.079 114.992 167.209 114.887 167.301 114.751C167.393 114.615 167.443 114.455 167.445 114.29C167.442 114.093 167.37 113.905 167.24 113.76C166.818 114.097 166.418 114.462 166.042 114.852Z" fill="#263238"/>
<path d="M171.639 114.29C171.644 114.498 171.589 114.703 171.479 114.879C171.369 115.054 171.211 115.193 171.023 115.276C170.836 115.359 170.629 115.383 170.429 115.345C170.228 115.307 170.043 115.209 169.897 115.063C169.752 114.917 169.652 114.73 169.611 114.526C169.57 114.322 169.59 114.11 169.668 113.917C169.745 113.725 169.878 113.56 170.048 113.445C170.217 113.329 170.417 113.268 170.621 113.27C170.754 113.268 170.885 113.293 171.008 113.343C171.131 113.394 171.243 113.469 171.338 113.563C171.433 113.658 171.508 113.771 171.56 113.896C171.612 114.021 171.639 114.154 171.639 114.29Z" fill="white"/>
<path d="M170.032 114.852C170.143 114.972 170.287 115.055 170.445 115.09C170.603 115.126 170.768 115.113 170.918 115.053C171.069 114.992 171.199 114.887 171.29 114.751C171.382 114.615 171.433 114.455 171.434 114.29C171.435 114.093 171.361 113.903 171.23 113.76C170.808 114.097 170.408 114.462 170.032 114.852Z" fill="#263238"/>
<path d="M175.629 114.29C175.633 114.496 175.577 114.699 175.467 114.873C175.357 115.046 175.2 115.183 175.014 115.264C174.828 115.346 174.623 115.37 174.424 115.332C174.226 115.294 174.042 115.196 173.898 115.052C173.754 114.907 173.655 114.722 173.614 114.52C173.573 114.317 173.592 114.107 173.668 113.916C173.745 113.725 173.875 113.561 174.043 113.446C174.211 113.331 174.409 113.27 174.611 113.27C174.744 113.268 174.875 113.293 174.998 113.343C175.121 113.394 175.233 113.469 175.328 113.563C175.423 113.658 175.498 113.771 175.55 113.896C175.601 114.021 175.628 114.154 175.629 114.29Z" fill="white"/>
<path d="M174.022 114.852C174.134 114.971 174.278 115.053 174.436 115.088C174.594 115.123 174.759 115.11 174.91 115.05C175.06 114.99 175.19 114.885 175.283 114.75C175.375 114.615 175.427 114.455 175.431 114.29C175.429 114.093 175.356 113.905 175.226 113.76C174.801 114.096 174.398 114.46 174.022 114.852Z" fill="#263238"/>
<path d="M179.619 114.29C179.623 114.496 179.566 114.699 179.457 114.873C179.347 115.046 179.19 115.183 179.004 115.264C178.818 115.346 178.613 115.37 178.414 115.332C178.215 115.294 178.032 115.196 177.888 115.052C177.743 114.907 177.645 114.722 177.604 114.52C177.563 114.317 177.582 114.107 177.658 113.916C177.735 113.725 177.865 113.561 178.033 113.446C178.201 113.331 178.399 113.27 178.601 113.27C178.733 113.268 178.865 113.293 178.988 113.343C179.111 113.394 179.223 113.469 179.318 113.563C179.412 113.658 179.488 113.771 179.539 113.896C179.591 114.021 179.618 114.154 179.619 114.29Z" fill="white"/>
<path d="M177.992 114.852C178.069 114.932 178.161 114.996 178.262 115.04C178.363 115.084 178.472 115.107 178.582 115.107C178.688 115.109 178.794 115.089 178.893 115.049C178.992 115.008 179.082 114.949 179.158 114.873C179.234 114.797 179.295 114.706 179.337 114.606C179.379 114.506 179.4 114.398 179.401 114.29C179.399 114.093 179.326 113.905 179.196 113.76C178.773 114.097 178.37 114.462 177.992 114.852Z" fill="#263238"/>
<path d="M183.609 114.29C183.613 114.496 183.556 114.699 183.447 114.873C183.337 115.046 183.179 115.183 182.994 115.264C182.808 115.346 182.603 115.37 182.404 115.332C182.205 115.294 182.022 115.196 181.878 115.052C181.733 114.907 181.634 114.722 181.593 114.52C181.553 114.317 181.572 114.107 181.648 113.916C181.725 113.725 181.855 113.561 182.023 113.446C182.191 113.331 182.388 113.27 182.591 113.27C182.723 113.268 182.855 113.293 182.978 113.343C183.101 113.394 183.213 113.469 183.308 113.563C183.402 113.658 183.478 113.771 183.529 113.896C183.581 114.021 183.608 114.154 183.609 114.29Z" fill="white"/>
<path d="M182.008 114.852C182.119 114.972 182.263 115.055 182.421 115.09C182.579 115.126 182.744 115.113 182.894 115.053C183.045 114.992 183.174 114.887 183.266 114.751C183.358 114.615 183.408 114.455 183.41 114.29C183.408 114.093 183.335 113.905 183.205 113.76C182.782 114.096 182.382 114.46 182.008 114.852Z" fill="#263238"/>
<path d="M187.599 114.29C187.604 114.498 187.548 114.703 187.439 114.878C187.329 115.054 187.171 115.192 186.984 115.275C186.797 115.358 186.591 115.383 186.39 115.345C186.19 115.308 186.005 115.21 185.859 115.065C185.713 114.92 185.613 114.734 185.571 114.53C185.53 114.326 185.548 114.115 185.625 113.922C185.702 113.729 185.833 113.564 186.002 113.448C186.171 113.332 186.37 113.27 186.574 113.27C186.707 113.268 186.839 113.293 186.962 113.343C187.086 113.394 187.198 113.468 187.293 113.563C187.388 113.658 187.464 113.771 187.517 113.895C187.569 114.02 187.597 114.154 187.599 114.29Z" fill="white"/>
<path d="M185.998 114.852C186.109 114.972 186.253 115.055 186.411 115.09C186.569 115.126 186.734 115.113 186.884 115.053C187.035 114.992 187.164 114.887 187.256 114.751C187.348 114.615 187.398 114.455 187.4 114.29C187.398 114.093 187.325 113.905 187.195 113.76C186.773 114.097 186.373 114.462 185.998 114.852Z" fill="#263238"/>
<path d="M191.595 114.29C191.599 114.496 191.542 114.699 191.433 114.873C191.323 115.046 191.165 115.183 190.98 115.264C190.794 115.346 190.589 115.37 190.39 115.332C190.191 115.294 190.008 115.196 189.864 115.052C189.719 114.907 189.62 114.722 189.579 114.52C189.539 114.317 189.558 114.107 189.634 113.916C189.711 113.725 189.841 113.561 190.009 113.446C190.177 113.331 190.374 113.27 190.577 113.27C190.709 113.268 190.841 113.293 190.964 113.343C191.087 113.394 191.199 113.469 191.294 113.563C191.388 113.658 191.464 113.771 191.515 113.896C191.567 114.021 191.594 114.154 191.595 114.29Z" fill="white"/>
<path d="M189.987 114.852C190.064 114.933 190.155 114.997 190.257 115.041C190.358 115.084 190.467 115.107 190.577 115.107C190.683 115.108 190.788 115.087 190.886 115.047C190.984 115.006 191.073 114.946 191.149 114.87C191.225 114.794 191.285 114.704 191.326 114.604C191.367 114.505 191.389 114.398 191.39 114.29C191.39 114.093 191.317 113.903 191.185 113.76C190.763 114.097 190.363 114.462 189.987 114.852Z" fill="#263238"/>
<path d="M195.585 114.29C195.588 114.496 195.532 114.699 195.422 114.873C195.313 115.046 195.155 115.183 194.97 115.264C194.784 115.346 194.579 115.37 194.38 115.332C194.181 115.294 193.998 115.196 193.853 115.052C193.709 114.907 193.61 114.722 193.569 114.52C193.528 114.317 193.547 114.107 193.624 113.916C193.7 113.725 193.831 113.561 193.999 113.446C194.167 113.331 194.364 113.27 194.566 113.27C194.699 113.268 194.831 113.293 194.954 113.343C195.077 113.394 195.189 113.469 195.283 113.563C195.378 113.658 195.453 113.771 195.505 113.896C195.557 114.021 195.584 114.154 195.585 114.29Z" fill="white"/>
<path d="M194.003 114.852C194.115 114.971 194.259 115.053 194.417 115.088C194.575 115.123 194.74 115.11 194.891 115.05C195.041 114.99 195.171 114.885 195.264 114.75C195.357 114.615 195.408 114.455 195.412 114.29C195.41 114.093 195.337 113.905 195.207 113.76C194.783 114.097 194.381 114.462 194.003 114.852Z" fill="#263238"/>
<path d="M199.574 114.29C199.578 114.496 199.522 114.699 199.412 114.873C199.303 115.046 199.145 115.183 198.959 115.264C198.774 115.346 198.568 115.37 198.37 115.332C198.171 115.294 197.988 115.196 197.843 115.052C197.699 114.907 197.6 114.722 197.559 114.52C197.518 114.317 197.537 114.107 197.614 113.916C197.69 113.725 197.821 113.561 197.988 113.446C198.156 113.331 198.354 113.27 198.556 113.27C198.689 113.268 198.82 113.293 198.943 113.343C199.066 113.394 199.178 113.469 199.273 113.563C199.368 113.658 199.443 113.771 199.495 113.896C199.547 114.021 199.574 114.154 199.574 114.29Z" fill="white"/>
<path d="M197.967 114.852C198.044 114.932 198.135 114.996 198.236 115.04C198.338 115.084 198.446 115.107 198.556 115.107C198.663 115.109 198.768 115.089 198.867 115.049C198.966 115.008 199.057 114.949 199.133 114.873C199.209 114.797 199.27 114.706 199.311 114.606C199.353 114.506 199.375 114.398 199.376 114.29C199.374 114.093 199.301 113.905 199.171 113.76C198.747 114.097 198.345 114.462 197.967 114.852Z" fill="#263238"/>
<path d="M147.688 120.77C147.693 120.976 147.637 121.18 147.529 121.354C147.42 121.529 147.263 121.666 147.077 121.749C146.892 121.832 146.686 121.856 146.487 121.819C146.288 121.782 146.104 121.685 145.959 121.54C145.814 121.396 145.714 121.211 145.673 121.008C145.632 120.806 145.65 120.596 145.727 120.404C145.803 120.213 145.933 120.049 146.101 119.933C146.269 119.818 146.467 119.756 146.669 119.756C146.802 119.754 146.933 119.779 147.055 119.829C147.178 119.879 147.29 119.953 147.384 120.047C147.479 120.142 147.554 120.254 147.606 120.378C147.658 120.502 147.686 120.635 147.688 120.77Z" fill="white"/>
<path d="M146.087 121.338C146.162 121.419 146.252 121.483 146.352 121.527C146.453 121.571 146.56 121.594 146.669 121.593C146.776 121.594 146.882 121.574 146.981 121.533C147.08 121.492 147.17 121.431 147.246 121.355C147.323 121.278 147.383 121.187 147.425 121.087C147.467 120.986 147.488 120.878 147.489 120.769C147.486 120.575 147.413 120.389 147.284 120.246C146.863 120.584 146.463 120.948 146.087 121.338Z" fill="#263238"/>
<path d="M151.684 120.77C151.69 120.978 151.636 121.184 151.527 121.36C151.418 121.537 151.26 121.676 151.073 121.76C150.886 121.844 150.678 121.869 150.477 121.832C150.276 121.795 150.091 121.697 149.945 121.552C149.798 121.406 149.698 121.219 149.656 121.015C149.615 120.811 149.634 120.598 149.712 120.405C149.789 120.212 149.922 120.047 150.092 119.932C150.261 119.816 150.461 119.755 150.666 119.756C150.798 119.754 150.929 119.779 151.051 119.829C151.174 119.879 151.286 119.953 151.38 120.047C151.475 120.142 151.55 120.254 151.603 120.378C151.655 120.502 151.682 120.635 151.684 120.77Z" fill="white"/>
<path d="M150.077 121.338C150.188 121.458 150.333 121.541 150.491 121.577C150.65 121.613 150.815 121.599 150.966 121.538C151.117 121.476 151.246 121.371 151.338 121.234C151.429 121.097 151.478 120.935 151.479 120.769C151.478 120.575 151.405 120.388 151.274 120.246C150.852 120.584 150.452 120.948 150.077 121.338Z" fill="#263238"/>
<path d="M155.674 120.77C155.679 120.976 155.623 121.18 155.515 121.354C155.406 121.529 155.249 121.666 155.063 121.749C154.878 121.832 154.672 121.856 154.473 121.819C154.274 121.782 154.09 121.685 153.945 121.54C153.8 121.396 153.7 121.211 153.659 121.008C153.618 120.806 153.636 120.596 153.713 120.404C153.789 120.213 153.919 120.049 154.087 119.933C154.255 119.818 154.453 119.756 154.655 119.756C154.788 119.754 154.919 119.779 155.041 119.829C155.164 119.879 155.276 119.953 155.37 120.047C155.465 120.142 155.54 120.254 155.592 120.378C155.644 120.502 155.672 120.635 155.674 120.77Z" fill="white"/>
<path d="M154.066 121.338C154.179 121.457 154.324 121.54 154.482 121.575C154.641 121.61 154.806 121.596 154.957 121.535C155.108 121.474 155.238 121.369 155.33 121.232C155.422 121.096 155.473 120.935 155.475 120.769C155.472 120.575 155.399 120.389 155.27 120.246C154.845 120.582 154.443 120.947 154.066 121.338Z" fill="#263238"/>
<path d="M159.664 120.77C159.669 120.976 159.613 121.18 159.505 121.354C159.396 121.529 159.239 121.666 159.053 121.749C158.868 121.832 158.662 121.856 158.463 121.819C158.264 121.782 158.08 121.685 157.935 121.54C157.79 121.396 157.69 121.211 157.649 121.008C157.607 120.806 157.626 120.596 157.702 120.404C157.779 120.213 157.909 120.049 158.077 119.933C158.245 119.818 158.443 119.756 158.645 119.756C158.777 119.754 158.908 119.779 159.031 119.829C159.154 119.879 159.266 119.953 159.36 120.047C159.455 120.142 159.53 120.254 159.582 120.378C159.634 120.502 159.662 120.635 159.664 120.77Z" fill="white"/>
<path d="M158.056 121.338C158.133 121.419 158.224 121.483 158.326 121.526C158.427 121.57 158.535 121.593 158.645 121.593C158.752 121.594 158.858 121.574 158.957 121.533C159.056 121.492 159.146 121.431 159.222 121.355C159.298 121.278 159.359 121.187 159.401 121.087C159.442 120.986 159.464 120.878 159.465 120.769C159.461 120.575 159.388 120.389 159.26 120.246C158.836 120.584 158.434 120.948 158.056 121.338Z" fill="#263238"/>
<path d="M163.653 120.77C163.658 120.976 163.603 121.18 163.494 121.354C163.386 121.529 163.228 121.666 163.043 121.749C162.857 121.832 162.652 121.856 162.453 121.819C162.253 121.782 162.07 121.685 161.925 121.54C161.78 121.396 161.68 121.211 161.639 121.008C161.597 120.806 161.616 120.596 161.692 120.404C161.768 120.213 161.899 120.049 162.067 119.933C162.235 119.818 162.433 119.756 162.635 119.756C162.767 119.754 162.898 119.779 163.021 119.829C163.144 119.879 163.255 119.953 163.35 120.047C163.444 120.142 163.52 120.254 163.572 120.378C163.624 120.502 163.652 120.635 163.653 120.77Z" fill="white"/>
<path d="M162.052 121.338C162.127 121.419 162.218 121.483 162.318 121.527C162.418 121.571 162.526 121.594 162.635 121.593C162.742 121.594 162.848 121.574 162.947 121.533C163.046 121.492 163.136 121.431 163.212 121.355C163.288 121.278 163.349 121.187 163.391 121.087C163.432 120.986 163.454 120.878 163.455 120.769C163.451 120.575 163.378 120.389 163.25 120.246C162.827 120.582 162.427 120.947 162.052 121.338Z" fill="#263238"/>
<path d="M167.65 120.77C167.656 120.978 167.601 121.183 167.493 121.36C167.384 121.536 167.226 121.675 167.04 121.759C166.853 121.844 166.646 121.869 166.445 121.832C166.245 121.796 166.059 121.699 165.912 121.554C165.766 121.409 165.665 121.223 165.623 121.019C165.581 120.815 165.599 120.603 165.676 120.41C165.752 120.217 165.883 120.051 166.052 119.935C166.222 119.818 166.421 119.756 166.625 119.756C166.892 119.752 167.15 119.857 167.342 120.047C167.534 120.237 167.645 120.497 167.65 120.77Z" fill="white"/>
<path d="M166.042 121.338C166.117 121.419 166.208 121.483 166.308 121.527C166.408 121.571 166.516 121.594 166.625 121.593C166.732 121.594 166.838 121.574 166.937 121.533C167.036 121.492 167.126 121.431 167.202 121.355C167.278 121.278 167.339 121.187 167.38 121.087C167.422 120.986 167.444 120.878 167.445 120.769C167.441 120.575 167.368 120.389 167.24 120.246C166.818 120.584 166.418 120.948 166.042 121.338Z" fill="#263238"/>
<path d="M171.639 120.77C171.646 120.978 171.591 121.184 171.482 121.36C171.373 121.537 171.215 121.676 171.028 121.76C170.841 121.844 170.634 121.869 170.433 121.832C170.232 121.795 170.046 121.697 169.9 121.552C169.754 121.406 169.653 121.219 169.612 121.015C169.57 120.811 169.59 120.598 169.667 120.405C169.745 120.212 169.877 120.047 170.047 119.932C170.217 119.816 170.417 119.755 170.621 119.756C170.753 119.754 170.884 119.779 171.007 119.829C171.13 119.879 171.241 119.953 171.336 120.047C171.43 120.142 171.506 120.254 171.558 120.378C171.61 120.502 171.638 120.635 171.639 120.77Z" fill="white"/>
<path d="M170.032 121.338C170.144 121.458 170.288 121.541 170.447 121.577C170.605 121.613 170.771 121.599 170.921 121.538C171.072 121.476 171.202 121.371 171.293 121.234C171.385 121.097 171.434 120.935 171.434 120.769C171.434 120.575 171.361 120.388 171.23 120.246C170.808 120.584 170.408 120.948 170.032 121.338Z" fill="#263238"/>
<path d="M175.629 120.77C175.634 120.976 175.579 121.18 175.47 121.354C175.361 121.529 175.204 121.666 175.019 121.749C174.833 121.832 174.628 121.856 174.428 121.819C174.229 121.782 174.045 121.685 173.9 121.54C173.755 121.396 173.656 121.211 173.615 121.008C173.573 120.806 173.592 120.596 173.668 120.404C173.744 120.213 173.875 120.049 174.043 119.933C174.211 119.818 174.408 119.756 174.611 119.756C174.743 119.754 174.874 119.779 174.997 119.829C175.119 119.879 175.231 119.953 175.326 120.047C175.42 120.142 175.496 120.254 175.548 120.378C175.6 120.502 175.628 120.635 175.629 120.77Z" fill="white"/>
<path d="M174.022 121.338C174.135 121.457 174.279 121.54 174.438 121.575C174.596 121.61 174.762 121.596 174.912 121.535C175.063 121.474 175.193 121.369 175.285 121.232C175.378 121.096 175.428 120.935 175.431 120.769C175.427 120.575 175.354 120.389 175.226 120.246C174.801 120.582 174.398 120.947 174.022 121.338Z" fill="#263238"/>
<path d="M179.619 120.77C179.624 120.976 179.569 121.18 179.46 121.354C179.351 121.529 179.194 121.666 179.008 121.749C178.823 121.832 178.617 121.856 178.418 121.819C178.219 121.782 178.035 121.685 177.89 121.54C177.745 121.396 177.646 121.211 177.604 121.008C177.563 120.806 177.582 120.596 177.658 120.404C177.734 120.213 177.864 120.049 178.032 119.933C178.2 119.818 178.398 119.756 178.601 119.756C178.733 119.754 178.864 119.779 178.987 119.829C179.109 119.879 179.221 119.953 179.315 120.047C179.41 120.142 179.486 120.254 179.538 120.378C179.59 120.502 179.617 120.635 179.619 120.77Z" fill="white"/>
<path d="M177.992 121.338C178.069 121.419 178.161 121.483 178.262 121.526C178.363 121.57 178.472 121.593 178.582 121.593C178.688 121.594 178.794 121.574 178.893 121.533C178.992 121.492 179.082 121.431 179.159 121.355C179.235 121.278 179.295 121.187 179.337 121.087C179.379 120.986 179.4 120.878 179.401 120.769C179.398 120.575 179.325 120.389 179.196 120.246C178.773 120.584 178.37 120.948 177.992 121.338Z" fill="#263238"/>
<path d="M183.609 120.77C183.614 120.976 183.559 121.18 183.45 121.354C183.341 121.529 183.184 121.666 182.998 121.749C182.813 121.832 182.607 121.856 182.408 121.819C182.209 121.782 182.025 121.685 181.88 121.54C181.735 121.396 181.636 121.211 181.594 121.008C181.553 120.806 181.571 120.596 181.648 120.404C181.724 120.213 181.854 120.049 182.022 119.933C182.19 119.818 182.388 119.756 182.591 119.756C182.723 119.754 182.854 119.779 182.976 119.829C183.099 119.879 183.211 119.953 183.305 120.047C183.4 120.142 183.475 120.254 183.527 120.378C183.579 120.502 183.607 120.635 183.609 120.77Z" fill="white"/>
<path d="M182.008 121.338C182.083 121.419 182.173 121.483 182.273 121.527C182.374 121.571 182.482 121.594 182.591 121.593C182.697 121.594 182.803 121.574 182.902 121.533C183.001 121.492 183.091 121.431 183.168 121.355C183.244 121.278 183.304 121.187 183.346 121.087C183.388 120.986 183.409 120.878 183.41 120.769C183.407 120.575 183.334 120.389 183.205 120.246C182.782 120.582 182.382 120.947 182.008 121.338Z" fill="#263238"/>
<path d="M187.599 120.77C187.605 120.978 187.55 121.183 187.442 121.36C187.333 121.536 187.175 121.675 186.989 121.759C186.802 121.844 186.595 121.869 186.394 121.832C186.194 121.796 186.008 121.699 185.862 121.554C185.715 121.409 185.614 121.223 185.572 121.019C185.53 120.815 185.548 120.603 185.625 120.41C185.701 120.217 185.832 120.051 186.001 119.935C186.171 119.818 186.37 119.756 186.574 119.756C186.841 119.752 187.099 119.857 187.291 120.047C187.483 120.237 187.594 120.497 187.599 120.77Z" fill="white"/>
<path d="M185.998 121.338C186.073 121.419 186.163 121.483 186.263 121.527C186.363 121.571 186.471 121.594 186.58 121.593C186.687 121.594 186.793 121.574 186.892 121.533C186.991 121.492 187.081 121.431 187.157 121.355C187.233 121.278 187.294 121.187 187.336 121.087C187.377 120.986 187.399 120.878 187.4 120.769C187.396 120.575 187.323 120.389 187.195 120.246C186.773 120.584 186.373 120.948 185.998 121.338Z" fill="#263238"/>
<path d="M191.595 120.77C191.6 120.976 191.545 121.18 191.436 121.354C191.327 121.529 191.17 121.666 190.984 121.749C190.799 121.832 190.593 121.856 190.394 121.819C190.195 121.782 190.011 121.685 189.866 121.54C189.721 121.396 189.622 121.211 189.58 121.008C189.539 120.806 189.557 120.596 189.634 120.404C189.71 120.213 189.84 120.049 190.008 119.933C190.176 119.818 190.374 119.756 190.577 119.756C190.709 119.754 190.84 119.779 190.962 119.829C191.085 119.879 191.197 119.953 191.291 120.047C191.386 120.142 191.461 120.254 191.513 120.378C191.565 120.502 191.593 120.635 191.595 120.77Z" fill="white"/>
<path d="M189.987 121.338C190.099 121.458 190.244 121.541 190.402 121.577C190.561 121.613 190.726 121.599 190.877 121.538C191.028 121.476 191.157 121.371 191.249 121.234C191.34 121.097 191.389 120.935 191.39 120.769C191.389 120.575 191.316 120.388 191.185 120.246C190.763 120.584 190.363 120.948 189.987 121.338Z" fill="#263238"/>
<path d="M195.585 120.77C195.59 120.976 195.534 121.18 195.426 121.354C195.317 121.529 195.16 121.666 194.974 121.749C194.789 121.832 194.583 121.856 194.384 121.819C194.185 121.782 194.001 121.685 193.856 121.54C193.711 121.396 193.611 121.211 193.57 121.008C193.529 120.806 193.547 120.596 193.623 120.404C193.7 120.213 193.83 120.049 193.998 119.933C194.166 119.818 194.364 119.756 194.566 119.756C194.698 119.754 194.829 119.779 194.952 119.829C195.075 119.879 195.187 119.953 195.281 120.047C195.376 120.142 195.451 120.254 195.503 120.378C195.555 120.502 195.583 120.635 195.585 120.77Z" fill="white"/>
<path d="M194.003 121.338C194.116 121.457 194.26 121.54 194.419 121.575C194.578 121.61 194.743 121.596 194.894 121.535C195.044 121.474 195.174 121.369 195.266 121.232C195.359 121.096 195.409 120.935 195.412 120.769C195.408 120.575 195.335 120.389 195.207 120.246C194.783 120.584 194.381 120.948 194.003 121.338Z" fill="#263238"/>
<path d="M199.574 120.77C199.58 120.976 199.524 121.18 199.415 121.354C199.307 121.529 199.149 121.666 198.964 121.749C198.778 121.832 198.573 121.856 198.374 121.819C198.174 121.782 197.991 121.685 197.846 121.54C197.701 121.396 197.601 121.211 197.56 121.008C197.518 120.806 197.537 120.596 197.613 120.404C197.689 120.213 197.82 120.049 197.988 119.933C198.156 119.818 198.354 119.756 198.556 119.756C198.688 119.754 198.819 119.779 198.942 119.829C199.065 119.879 199.176 119.953 199.271 120.047C199.365 120.142 199.441 120.254 199.493 120.378C199.545 120.502 199.573 120.635 199.574 120.77Z" fill="white"/>
<path d="M197.967 121.338C198.044 121.419 198.135 121.483 198.236 121.526C198.338 121.57 198.446 121.593 198.556 121.593C198.663 121.594 198.769 121.574 198.868 121.533C198.967 121.492 199.057 121.431 199.133 121.355C199.209 121.278 199.27 121.187 199.312 121.087C199.353 120.986 199.375 120.878 199.376 120.769C199.372 120.575 199.299 120.389 199.171 120.246C198.747 120.584 198.345 120.948 197.967 121.338Z" fill="#263238"/>
<path d="M140.47 109.259H109.596C108.925 109.259 108.281 108.991 107.802 108.512C107.323 108.032 107.047 107.38 107.034 106.695V92.1505C107.034 82.2293 115.11 74.1523 125.036 74.1523C134.963 74.1523 143.045 82.2293 143.045 92.1505V106.695C143.031 107.382 142.754 108.036 142.272 108.516C141.79 108.996 141.143 109.263 140.47 109.259ZM112.157 104.158H137.902V92.1505C137.902 88.6641 136.546 85.3205 134.132 82.8553C131.718 80.39 128.444 79.005 125.03 79.005C121.616 79.005 118.342 80.39 115.928 82.8553C113.514 85.3205 112.157 88.6641 112.157 92.1505V104.158Z" fill="white" stroke="#263238" stroke-linecap="round" stroke-linejoin="round"/>
<path d="M144.428 102.248H105.119V135.458H144.428V102.248Z" fill="#DB4EDE" stroke="#263238" stroke-linecap="round" stroke-linejoin="round"/>
<path d="M128.866 116.04C128.823 114.91 128.353 113.84 127.555 113.056C126.757 112.272 125.692 111.834 124.585 111.834C123.477 111.834 122.412 112.272 121.614 113.056C120.816 113.84 120.346 114.91 120.303 116.04C120.307 116.818 120.518 117.579 120.914 118.243C121.31 118.907 121.876 119.448 122.551 119.807L121.834 127.348H127.335L126.618 119.807C127.293 119.448 127.859 118.907 128.255 118.243C128.651 117.579 128.862 116.818 128.866 116.04Z" fill="#263238" stroke="#263238" stroke-linecap="round" stroke-linejoin="round"/>
<path d="M213.536 250C230.336 250 243.955 246.925 243.955 243.133C243.955 239.34 230.336 236.266 213.536 236.266C196.735 236.266 183.116 239.34 183.116 243.133C183.116 246.925 196.735 250 213.536 250Z" fill="#DB4EDE"/>
<path opacity="0.5" d="M213.536 250C230.336 250 243.955 246.925 243.955 243.133C243.955 239.34 230.336 236.266 213.536 236.266C196.735 236.266 183.116 239.34 183.116 243.133C183.116 246.925 196.735 250 213.536 250Z" fill="white"/>
<path d="M197.628 236.11C197.628 236.11 190.25 240.348 190.25 242.388C190.25 244.429 194.803 243.173 197.781 241.734C200.759 240.295 203.122 239.223 203.122 236.397C203.122 233.572 197.628 236.11 197.628 236.11Z" fill="#DB4EDE" stroke="#263238" stroke-miterlimit="10"/>
<path d="M232.947 236.11C232.947 236.11 240.324 240.348 240.324 242.388C240.324 244.429 235.771 243.173 232.793 241.734C229.815 240.295 227.452 239.223 227.452 236.397C227.452 233.572 232.947 236.11 232.947 236.11Z" fill="#DB4EDE" stroke="#263238" stroke-miterlimit="10"/>
<path d="M200.612 166.738L197.467 236.919C197.902 237.285 198.405 237.556 198.945 237.718C199.486 237.88 200.053 237.929 200.612 237.861C201.588 237.713 202.479 237.212 203.122 236.448L213.798 179.164H215.995L227.305 237.521C227.98 237.903 228.73 238.126 229.501 238.175C230.596 238.175 232.325 236.762 232.325 236.762L228.713 166.784L200.612 166.738Z" fill="#263238" stroke="#263238" stroke-miterlimit="10"/>
<path d="M211.601 124.21L197.314 130.168L201.079 164.072H228.393L233.421 128.913L217.878 123.896L211.601 124.21Z" fill="#DB4EDE" stroke="#263238" stroke-miterlimit="10"/>
<path d="M213.17 129.068L214.893 131.893L212.069 156.222L215.521 161.401L218.505 155.751L216.148 131.579L218.191 128.289L215.207 126.955L213.17 129.068Z" fill="#263238" stroke="#263238" stroke-miterlimit="10"/>
<path d="M215.207 126.954L212.914 130.964L208.828 125.405L211.115 122.625L215.207 126.954Z" fill="#DB4EDE" stroke="#263238" stroke-miterlimit="10"/>
<path d="M215.207 126.956L217.986 131.37L221.336 125.079L219.376 122.541L215.207 126.956Z" fill="#DB4EDE" stroke="#263238" stroke-miterlimit="10"/>
<path d="M209.661 136.445H200.036V139.794L204.851 141.677L209.661 139.585V136.445Z" fill="#DB4EDE" stroke="#263238" stroke-miterlimit="10"/>
<path d="M228.918 136.445H219.293V139.794L224.102 141.677L228.918 139.585V136.445Z" fill="#DB4EDE" stroke="#263238" stroke-miterlimit="10"/>
<path d="M228.713 163.441H200.612V166.738H228.713V163.441Z" fill="#263238" stroke="#263238" stroke-miterlimit="10"/>
<path d="M200.138 166.111L195.271 168.152C195.191 169.572 195.297 170.998 195.585 172.39C196.059 174.273 196.686 178.354 197.154 179.139C197.621 179.924 199.984 181.493 200.298 181.023C200.612 180.552 202.181 166.739 202.181 166.739L200.138 166.111Z" fill="#263238" stroke="#263238" stroke-miterlimit="10"/>
<path d="M211.115 116.905V122.628L215.207 126.957L219.376 122.543V116.82L211.115 116.905Z" fill="white" stroke="#263238" stroke-miterlimit="10"/>
<path d="M208.258 111.592C208.258 111.592 207.522 109.872 207.029 110.938C206.536 112.004 207.112 113.633 207.849 114.287C208.39 114.688 209.061 114.863 209.725 114.777L209.315 112.325L208.258 111.592Z" fill="white" stroke="#263238" stroke-miterlimit="10"/>
<path d="M221.579 111.592C221.579 111.592 222.316 109.872 222.809 110.938C223.302 112.004 222.726 113.633 221.989 114.287C221.445 114.688 220.772 114.864 220.106 114.777L220.516 112.325L221.579 111.592Z" fill="white" stroke="#263238" stroke-miterlimit="10"/>
<path d="M209.648 100.234C209.648 100.234 206.209 101.705 206.209 104.158C206.209 106.61 206.702 109.39 207.522 110.456C208.342 111.522 208.989 112.254 208.989 112.254L209.155 108.736L211.525 104.57C211.525 104.57 215.45 107.101 217.41 107.101C218.506 107.11 219.6 107.03 220.683 106.859L221.419 111.025L222.482 108.003V105.224C222.482 105.224 224.442 103.34 224.032 102.117C223.622 100.894 216.987 97.0485 212.914 98.0296C208.841 99.0106 209.648 100.234 209.648 100.234Z" fill="#263238" stroke="#263238" stroke-miterlimit="10"/>
<path d="M208.009 108.486C208.009 108.486 208.989 114.614 209.808 116.249C210.886 118.063 212.208 119.714 213.734 121.154C214.304 121.559 216.43 121.232 217.25 121.232C218.07 121.232 220.452 116.327 220.843 115.431C221.233 114.536 221.483 106.851 221.483 106.851L220.766 105.464C220.766 105.464 217.25 106.367 214.471 105.223C212.962 104.671 211.612 103.742 210.545 102.521C210.545 102.521 210.301 105.301 209.315 106.936C208.329 108.571 208.009 108.486 208.009 108.486Z" fill="white" stroke="#263238" stroke-miterlimit="10"/>
<path d="M214.304 109.141C213.315 108.613 212.218 108.333 211.102 108.323C210.144 108.284 209.192 108.48 208.323 108.892C208.323 108.892 208.323 111.672 209.226 112.738C210.128 113.804 212.741 113.47 213.478 112.574C214.214 111.678 214.304 109.141 214.304 109.141Z" fill="#263238" stroke="#263238" stroke-miterlimit="10"/>
<path d="M215.45 109.141C216.439 108.613 217.537 108.333 218.652 108.323C219.61 108.284 220.563 108.48 221.432 108.892C221.432 108.892 221.432 111.672 220.529 112.738C219.626 113.804 217.013 113.47 216.283 112.574C215.553 111.678 215.45 109.141 215.45 109.141Z" fill="#263238" stroke="#263238" stroke-miterlimit="10"/>
<path d="M214.304 109.141H215.45" stroke="#263238" stroke-miterlimit="10"/>
<path d="M197.467 160.932L202.648 160.775L206.574 164.385C206.568 164.847 206.402 165.292 206.107 165.641C205.633 166.112 204.378 165.798 204.378 165.798C204.378 165.798 203.436 168.153 201.707 168.153C199.978 168.153 195.303 164.883 195.303 164.883L197.467 160.932Z" fill="white" stroke="#263238" stroke-miterlimit="10"/>
<path d="M197.314 130.166L179.888 153.553L195.271 164.854L197.467 160.93L192.76 151.67L199.197 145.705L197.314 130.166Z" fill="#DB4EDE" stroke="#263238" stroke-miterlimit="10"/>
<path d="M196.212 158.262L193.548 163.127" stroke="#263238" stroke-linecap="round" stroke-linejoin="round"/>
<path d="M192.76 151.671L190.717 146.334" stroke="#263238" stroke-linecap="round" stroke-linejoin="round"/>
<path d="M233.42 160.932L228.24 160.775L224.314 164.385C224.322 164.848 224.49 165.293 224.788 165.641C225.255 166.112 226.51 165.798 226.51 165.798C226.51 165.798 227.452 168.153 229.181 168.153C230.91 168.153 235.617 164.883 235.617 164.883L233.42 160.932Z" fill="white" stroke="#263238" stroke-miterlimit="10"/>
<path d="M233.421 128.912L251 153.555L235.617 164.856L233.421 160.932L238.128 151.671L230.75 145.55L233.421 128.912Z" fill="#DB4EDE" stroke="#263238" stroke-miterlimit="10"/>
<path d="M234.676 158.262L237.34 163.127" stroke="#263238" stroke-linecap="round" stroke-linejoin="round"/>
<path d="M238.128 151.671L240.171 146.334" stroke="#263238" stroke-linecap="round" stroke-linejoin="round"/>
<path d="M35.4993 250C52.2998 250 65.9192 246.925 65.9192 243.133C65.9192 239.34 52.2998 236.266 35.4993 236.266C18.6989 236.266 5.07947 239.34 5.07947 243.133C5.07947 246.925 18.6989 250 35.4993 250Z" fill="#DB4EDE"/>
<path opacity="0.5" d="M35.4993 250C52.2998 250 65.9192 246.925 65.9192 243.133C65.9192 239.34 52.2998 236.266 35.4993 236.266C18.6989 236.266 5.07947 239.34 5.07947 243.133C5.07947 246.925 18.6989 250 35.4993 250Z" fill="white"/>
<path d="M19.6938 236.11C19.6938 236.11 12.3162 240.348 12.3162 242.388C12.3162 244.429 16.8696 243.173 19.8539 241.734C22.8383 240.295 25.1886 239.223 25.1886 236.397C25.1886 233.572 19.6938 236.11 19.6938 236.11Z" fill="#DB4EDE" stroke="#263238" stroke-miterlimit="10"/>
<path d="M55.0321 236.11C55.0321 236.11 62.4097 240.348 62.4097 242.388C62.4097 244.429 57.8627 243.173 54.8784 241.734C51.894 240.295 49.5373 239.223 49.5373 236.397C49.5373 233.572 55.0321 236.11 55.0321 236.11Z" fill="#DB4EDE" stroke="#263238" stroke-miterlimit="10"/>
<path d="M22.6781 166.738L19.5401 236.919C19.9736 237.285 20.4752 237.557 21.0146 237.719C21.554 237.88 22.1199 237.929 22.6781 237.861C23.654 237.713 24.5452 237.212 25.1886 236.448L35.8644 179.164H38.061L49.3644 237.547C50.0399 237.929 50.7903 238.152 51.561 238.201C52.6625 238.201 54.3852 236.788 54.3852 236.788L50.7733 166.81L22.6781 166.738Z" fill="#263238" stroke="#263238" stroke-miterlimit="10"/>
<path d="M33.6677 124.21L19.38 130.168L23.1457 164.072H50.4659L55.4868 128.913L39.9438 123.896L33.6677 124.21Z" fill="#DB4EDE" stroke="#263238" stroke-miterlimit="10"/>
<path d="M50.7797 163.441H22.6782V166.738H50.7797V163.441Z" fill="#263238" stroke="#263238" stroke-miterlimit="10"/>
<path d="M22.2042 166.111L17.3371 168.152C17.2572 169.572 17.3628 170.998 17.6509 172.39C18.1248 174.273 18.7524 178.354 19.2263 179.139C19.7002 179.924 22.0505 181.493 22.3643 181.023C22.6781 180.552 24.2472 166.739 24.2472 166.739L22.2042 166.111Z" fill="#263238" stroke="#263238" stroke-miterlimit="10"/>
<path d="M33.1874 116.905V122.628L37.2733 126.957L41.4424 122.543V116.82L33.1874 116.905Z" fill="white" stroke="#263238" stroke-miterlimit="10"/>
<path d="M30.3247 111.592C30.3247 111.592 29.5883 109.872 29.0951 110.938C28.602 112.004 29.1784 113.633 29.9149 114.287C30.4588 114.688 31.1319 114.864 31.7977 114.777L31.3878 112.325L30.3247 111.592Z" fill="white" stroke="#263238" stroke-miterlimit="10"/>
<path d="M43.6455 111.592C43.6455 111.592 44.3819 109.872 44.8751 110.938C45.3682 112.004 44.7918 113.633 44.0553 114.287C43.5136 114.688 42.8427 114.863 42.1789 114.777L42.5824 112.325L43.6455 111.592Z" fill="white" stroke="#263238" stroke-miterlimit="10"/>
<path d="M31.7145 100.234C31.7145 100.234 28.2818 101.705 28.2818 104.158C28.2818 106.61 28.7685 109.39 29.5627 110.456C30.3568 111.522 31.0356 112.254 31.0356 112.254L31.1957 108.736L33.5653 104.57C33.5653 104.57 37.491 107.101 39.4507 107.101C40.5462 107.11 41.6406 107.03 42.7232 106.859L43.4597 111.025L44.5228 108.003V105.224C44.5228 105.224 46.4825 103.34 46.0726 102.117C45.6628 100.894 39.028 97.0485 34.955 98.0296C30.8819 99.0106 31.7145 100.234 31.7145 100.234Z" fill="#263238" stroke="#263238" stroke-miterlimit="10"/>
<path d="M30.0558 108.486C30.0558 108.486 31.042 114.614 31.8553 116.249C32.9463 118.067 34.2806 119.72 35.8195 121.161C36.3895 121.566 38.5157 121.239 39.3354 121.239C40.1552 121.239 42.5375 116.334 42.9346 115.438C43.3316 114.542 43.575 106.858 43.575 106.858L42.8641 105.464C42.8641 105.464 39.3482 106.367 36.5688 105.223C35.0601 104.671 33.7105 103.742 32.6431 102.521C32.6431 102.521 32.3997 105.301 31.4199 106.936C30.44 108.571 30.0558 108.486 30.0558 108.486Z" fill="white" stroke="#263238" stroke-miterlimit="10"/>
<path d="M36.3703 109.141C35.3814 108.613 34.2839 108.333 33.1682 108.323C32.2106 108.284 31.2578 108.48 30.3888 108.892C30.3888 108.892 30.3888 111.672 31.2854 112.738C32.182 113.804 34.8013 113.47 35.5378 112.574C36.2742 111.678 36.3703 109.141 36.3703 109.141Z" fill="#263238" stroke="#263238" stroke-miterlimit="10"/>
<path d="M37.5166 109.141C38.5056 108.613 39.603 108.333 40.7187 108.323C41.6763 108.284 42.6292 108.48 43.4981 108.892C43.4981 108.892 43.4982 111.672 42.5952 112.738C41.6922 113.804 39.0857 113.47 38.3492 112.574C37.6127 111.678 37.5166 109.141 37.5166 109.141Z" fill="#263238" stroke="#263238" stroke-miterlimit="10"/>
<path d="M36.3703 109.141H37.5166" stroke="#263238" stroke-miterlimit="10"/>
<path d="M35.2367 129.068L36.9595 131.893L34.1352 156.222L37.5935 161.401L40.5714 155.751L38.2211 131.579L40.2576 128.289L37.2733 126.955L35.2367 129.068Z" fill="#263238" stroke="#263238" stroke-miterlimit="10"/>
<path d="M37.2733 126.954L34.9806 130.964L30.8947 125.405L33.1874 122.625L37.2733 126.954Z" fill="#DB4EDE" stroke="#263238" stroke-miterlimit="10"/>
<path d="M37.2733 126.956L40.0527 131.37L43.4021 125.079L41.4424 122.541L37.2733 126.956Z" fill="#DB4EDE" stroke="#263238" stroke-miterlimit="10"/>
<path d="M19.38 130.166L1.95422 153.553L17.3371 164.854L19.5401 160.93L14.8266 151.67L21.2628 145.705L19.38 130.166Z" fill="#DB4EDE" stroke="#263238" stroke-miterlimit="10"/>
<path d="M19.5401 160.932L24.7147 160.775L28.6404 164.385C28.6341 164.847 28.4686 165.292 28.1729 165.641C27.699 166.112 26.4438 165.798 26.4438 165.798C26.4438 165.798 25.5024 168.153 23.7733 168.153C22.0441 168.153 17.3691 164.883 17.3691 164.883L19.5401 160.932Z" fill="white" stroke="#263238" stroke-miterlimit="10"/>
<path d="M18.2849 158.262L15.6143 163.127" stroke="#263238" stroke-linecap="round" stroke-linejoin="round"/>
<path d="M14.8266 151.671L12.7901 146.334" stroke="#263238" stroke-linecap="round" stroke-linejoin="round"/>
<path d="M55.4868 128.912L73.0662 153.555L57.6834 164.856L55.4868 160.932L60.1938 151.671L52.8162 145.55L55.4868 128.912Z" fill="#DB4EDE" stroke="#263238" stroke-miterlimit="10"/>
<path d="M55.4868 160.932L50.3058 160.775L46.38 164.385C46.3881 164.848 46.556 165.293 46.8539 165.641C47.3215 166.112 48.5767 165.798 48.5767 165.798C48.5767 165.798 49.5181 168.153 51.2472 168.153C52.9763 168.153 57.6514 164.883 57.6514 164.883L55.4868 160.932Z" fill="white" stroke="#263238" stroke-miterlimit="10"/>
<path d="M56.742 158.262L59.4125 163.127" stroke="#263238" stroke-linecap="round" stroke-linejoin="round"/>
<path d="M60.1938 151.671L62.2368 146.334" stroke="#263238" stroke-linecap="round" stroke-linejoin="round"/>
<path d="M31.7273 136.445H22.1018V139.794L26.9177 141.677L31.7273 139.585V136.445Z" fill="#DB4EDE" stroke="#263238" stroke-miterlimit="10"/>
<path d="M50.9846 136.445H41.3591V139.794L46.1751 141.677L50.9846 139.585V136.445Z" fill="#DB4EDE" stroke="#263238" stroke-miterlimit="10"/>
</svg>
